<svg width="794" height="753" viewBox="0 0 794 753" fill="none" xmlns="http://www.w3.org/2000/svg">
<path d="M559.208 751.543C490.152 747.494 421.095 741.858 352.057 737.809C341.824 737.207 331.354 736.55 321.906 732.574C313.06 728.926 305.636 722.45 297.483 717.38C289.329 712.309 279.516 708.515 270.214 710.886C260.911 713.258 253.469 724.001 257.446 732.774C252.612 717.252 247.414 701.128 236.087 689.473C224.76 677.817 205.334 672.327 192.001 681.629C177.153 691.99 177.135 713.586 178.649 731.643C173.943 718.109 169.018 704.174 159.406 693.54C149.793 682.906 134.235 676.34 120.865 681.465C111.106 685.204 104.266 694.47 101.074 704.429C97.8823 714.388 97.864 725.059 98.2471 735.437L97.9187 752.072L559.208 751.543Z" fill="#F2F2F2"/>
<path d="M396.307 113.107C398.04 100.448 380.164 90.0333 366.722 88.9389C360.319 88.4282 353.662 89.4132 347.606 87.2973C334.455 82.7008 329.202 65.7194 316.361 60.3021C306.767 56.2528 295.732 59.8644 286.429 64.5338C277.127 69.2032 267.934 75.04 257.537 75.7696C248.508 76.3533 238.695 72.9972 230.779 77.4112C224.887 80.7127 221.896 87.498 216.424 91.456C210.952 95.4141 204.185 96.1984 197.582 96.5632C190.979 96.928 184.176 96.9828 178.175 99.737C172.174 102.491 167.231 108.857 168.453 115.314L396.307 113.107Z" fill="#F2F2F2"/>
<path d="M730.117 26.5763C730.974 20.4294 722.31 15.3952 715.817 14.8662C712.716 14.6108 709.488 15.0851 706.551 14.0637C700.185 11.8566 697.632 3.63037 691.43 1.00381C686.779 -0.947869 681.435 0.78493 676.929 3.04669C672.424 5.30845 667.973 8.17213 662.957 8.51869C658.58 8.79229 653.838 7.16893 649.989 9.30301C647.143 10.9081 645.648 14.1913 643.021 16.1248C640.283 17.8112 637.116 18.6725 633.901 18.6054C630.701 18.5199 627.514 19.0397 624.508 20.1376C621.589 21.4691 619.2 24.5334 619.802 27.6707L730.117 26.5763Z" fill="#F2F2F2"/>
<path d="M210.368 47.5158C211.444 39.7091 200.428 33.2886 192.128 32.632C188.188 32.3036 184.084 32.9056 180.345 31.6105C172.247 28.7833 169.018 18.3136 161.12 14.9939C155.211 12.495 148.352 14.7203 142.68 17.6022C137.007 20.4841 131.298 24.1139 124.896 24.5152C119.424 24.88 113.277 22.8006 108.48 25.5184C104.832 27.5612 103.008 31.7382 99.615 34.2006C96.2224 36.663 92.0637 37.119 88.0144 37.3379C83.9651 37.5568 79.624 37.6115 75.976 39.3078C72.328 41.0041 69.2272 44.9075 69.9933 48.902L210.368 47.5158Z" fill="#F2F2F2"/>
<path d="M793.501 752.072C793.501 752.346 615.971 752.547 397.018 752.547C178.065 752.547 0.498901 752.346 0.498901 752.072C0.498901 751.799 177.992 751.598 397.018 751.598C616.044 751.598 793.501 751.744 793.501 752.072Z" fill="#263238"/>
<path d="M19.432 245.693C19.432 245.693 163.291 316.483 203.255 330.181C235.923 341.399 288.436 344.956 320.228 341.526C326.237 340.985 332.18 339.867 337.975 338.189C363.11 330.181 489.842 303.934 489.842 303.934L641.416 295.744L638.023 275.115L464.141 285.657C464.141 285.657 363.639 299.593 349.576 316.173C349.576 316.173 337.629 332.753 316.543 335.562C295.458 338.371 202.014 315.808 191.472 305.247C180.929 294.686 178.12 289.78 147.896 282.757C117.673 275.735 49.5098 227.928 49.5098 227.928L15.784 244.8" fill="#7000FF"/>
<path opacity="0.5" d="M19.432 245.693C19.432 245.693 163.291 316.483 203.255 330.181C235.923 341.399 288.436 344.956 320.228 341.526C326.237 340.985 332.18 339.867 337.975 338.189C363.11 330.181 489.842 303.934 489.842 303.934L641.416 295.744L640.121 287.846L638.023 275.078L464.141 285.621C464.141 285.621 363.639 299.556 349.576 316.136C349.576 316.136 337.629 332.717 316.543 335.525C295.458 338.334 202.014 315.808 191.472 305.247C180.929 294.686 178.12 289.78 147.896 282.757C117.673 275.735 49.5098 227.928 49.5098 227.928L15.784 244.8" fill="black"/>
<path d="M607.581 192.013L409.604 192.87C404.615 192.577 399.738 191.274 395.267 189.04C388.391 185.793 373.817 176.91 369.366 174.174C368.252 173.463 366.911 173.196 365.609 173.427C364.788 173.591 364.15 173.974 364.496 174.813C364.971 175.926 377.264 186.523 377.264 186.523L355.376 179.61C354.774 179.41 354.136 179.344 353.506 179.417C352.876 179.489 352.269 179.698 351.728 180.03C351.236 180.34 350.871 180.759 350.962 181.27C351.108 182.2 364.204 188.42 364.204 188.42L347.588 185.574C346.829 185.424 346.041 185.578 345.395 186.005C344.75 186.432 344.299 187.097 344.14 187.854C344.131 188.012 344.131 188.171 344.14 188.329C344.14 189.879 367.852 197.449 367.852 197.449H345.964C345.409 197.451 344.862 197.594 344.377 197.865C343.892 198.137 343.483 198.526 343.19 198.999C342.896 199.471 342.727 200.01 342.699 200.565C342.671 201.12 342.784 201.673 343.028 202.173C344.268 204.635 377.21 205.493 377.538 209.177C377.866 212.862 368.163 213.628 364.879 218.607C364.413 219.157 364.09 219.814 363.941 220.52C363.792 221.225 363.821 221.957 364.026 222.648C364.23 223.34 364.604 223.97 365.113 224.48C365.622 224.991 366.25 225.367 366.94 225.575C370.297 221.562 383.174 218.279 383.174 218.279L403.238 219.337L590.691 246.04L619.564 227.691L630.673 207.627L607.581 192.013Z" fill="#FFBE9D"/>
<path d="M558.844 191.356L356.69 231.484C351.534 232.188 346.288 231.828 341.277 230.427C333.598 228.475 316.963 222.273 311.856 220.358C310.58 219.847 309.155 219.847 307.879 220.358C307.077 220.686 306.493 221.197 307.022 221.981C307.551 222.766 322.435 231.393 322.435 231.393L298.723 228.694C298.069 228.612 297.406 228.671 296.777 228.866C296.148 229.061 295.568 229.388 295.075 229.825C294.855 229.987 294.686 230.209 294.589 230.465C294.492 230.72 294.471 230.998 294.528 231.266C294.874 232.196 309.485 235.935 309.485 235.935L291.938 236.336C291.538 236.331 291.142 236.406 290.772 236.554C290.402 236.703 290.064 236.924 289.779 237.204C289.495 237.483 289.268 237.817 289.112 238.184C288.957 238.552 288.876 238.947 288.873 239.346C288.863 239.504 288.863 239.662 288.873 239.82C289.275 241.389 315.011 244.49 315.011 244.49L292.704 248.812C292.125 248.918 291.583 249.172 291.131 249.549C290.679 249.927 290.333 250.415 290.125 250.965C289.918 251.516 289.856 252.111 289.947 252.693C290.038 253.275 290.277 253.823 290.643 254.284C292.467 256.546 326.229 250.892 327.305 254.595C328.381 258.297 318.605 260.997 316.233 266.742C315.867 267.398 315.669 268.134 315.657 268.885C315.646 269.636 315.82 270.378 316.165 271.045C316.51 271.711 317.016 272.282 317.635 272.706C318.255 273.13 318.971 273.393 319.717 273.473C322.362 268.694 334.875 262.803 334.875 262.803L355.522 259.921L552.368 250.035L578.251 225.556L585.547 202.775L558.844 191.356Z" fill="#FFBE9D"/>
<path d="M486.686 205.401C486.256 205.543 485.817 205.659 485.373 205.748L481.579 206.605L467.625 209.523L421.46 218.643L375.294 227.763L361.323 230.572L357.51 231.302C357.066 231.404 356.615 231.471 356.161 231.503C356.584 231.331 357.024 231.203 357.474 231.12L361.231 230.208C364.515 229.442 369.275 228.384 375.167 227.107C386.932 224.553 403.238 221.197 421.277 217.658L467.498 208.794L481.506 206.167L485.336 205.492C485.781 205.412 486.234 205.382 486.686 205.401Z" fill="#EB996E"/>
<path d="M618.744 99.5181C618.459 101.352 617.675 103.072 616.478 104.491C615.282 105.91 613.718 106.972 611.958 107.562C609.952 108.2 607.763 108.182 605.793 108.912C603.823 109.641 601.963 111.556 602.401 113.618C602.711 115.168 604.134 116.189 605.301 117.266C606.468 118.342 607.526 119.983 606.833 121.406C606.14 122.829 603.823 123.084 602.638 124.361C602.105 125.105 601.84 126.008 601.887 126.923C601.933 127.837 602.288 128.708 602.893 129.395C604.13 130.747 605.57 131.897 607.161 132.806C608.755 133.746 609.92 135.271 610.408 137.056" fill="#263238"/>
<path d="M690.755 131.675C696.227 120.403 692.379 106.249 684.116 96.8551C675.853 87.4615 663.888 82.0807 651.886 78.6151C650.153 78.1043 648.019 77.7395 646.797 79.0528C646.33 79.6951 646.102 80.4802 646.152 81.2727C646.202 82.0651 646.527 82.8153 647.07 83.3939C648.192 84.515 649.569 85.3474 651.083 85.8199C646.254 83.2391 640.919 81.745 635.452 81.4423C633.557 81.2852 631.657 81.6778 629.98 82.5731C629.145 83.044 628.482 83.7675 628.086 84.6395C627.689 85.5114 627.579 86.4868 627.773 87.425C627.912 87.8691 628.153 88.2746 628.477 88.6092C628.8 88.9438 629.197 89.1982 629.637 89.3523C630.076 89.5064 630.545 89.5558 631.007 89.4967C631.468 89.4376 631.91 89.2716 632.296 89.0119C627.095 88.4055 621.843 89.5962 617.412 92.3863C614.257 94.3744 611.411 97.8583 612.123 101.506C612.56 103.64 614.129 105.373 614.822 107.452C616.063 111.228 614.166 115.241 612.688 118.962C610.218 124.704 609.294 130.992 610.007 137.202C610.412 140.242 611.474 143.157 613.118 145.746C614.762 148.335 616.949 150.535 619.528 152.195" fill="#263238"/>
<path d="M667.7 95.7243L665.876 95.0859C661.305 93.6909 656.501 93.2265 651.748 93.7199C646.995 94.2134 642.389 95.6549 638.202 97.959C634.016 100.263 630.334 103.383 627.374 107.135C624.414 110.886 622.236 115.193 620.969 119.801L598.132 195.424L638.06 229.205L650.281 197.485C650.281 197.485 669.451 201.37 676.382 183.331C679.72 174.612 685.156 156.099 689.88 139.281C692.345 130.562 691.431 121.234 687.319 113.16C683.207 105.085 676.201 98.8589 667.7 95.7243Z" fill="#FFBE9D"/>
<path d="M650.408 197.248C641.983 194.314 634.623 188.935 629.268 181.799C629.268 181.799 630.016 196.902 648.712 201.954L650.408 197.248Z" fill="#EB996E"/>
<path d="M647.636 106.048C646.177 102.765 644.353 95.6329 641.836 93.0611C639.318 90.4892 635.214 91.2371 631.731 92.2585C629.943 92.7654 628.301 93.6919 626.943 94.9609C625.586 96.2299 624.55 97.8048 623.924 99.5545C619.054 112.614 618.452 124.963 614.713 137.859C614.399 138.69 614.317 139.592 614.476 140.467C615.132 142.656 617.54 143.44 619.802 143.787C625.365 144.644 628.247 140.595 630.91 135.724C631.823 132.743 632.494 129.693 632.916 126.604C633.289 122.348 634.761 118.261 637.188 114.744C639.615 111.227 642.913 108.4 646.76 106.54L647.636 106.048Z" fill="#263238"/>
<path d="M624.106 130.271C623.851 130.015 613.016 121.972 608.839 134.521C604.663 147.07 618.087 148.675 618.233 148.31C618.379 147.945 624.106 130.271 624.106 130.271Z" fill="#FFBE9D"/>
<path d="M615.989 142.291C615.989 142.291 615.734 142.291 615.296 142.419C614.704 142.461 614.118 142.279 613.655 141.908C613.018 141.122 612.601 140.181 612.447 139.181C612.293 138.181 612.408 137.158 612.779 136.217C613.105 135.131 613.672 134.133 614.439 133.299C614.685 132.947 615.012 132.66 615.394 132.463C615.775 132.266 616.199 132.164 616.628 132.168C616.904 132.183 617.165 132.296 617.366 132.487C617.566 132.677 617.693 132.932 617.722 133.207C617.722 133.609 617.613 133.827 617.722 133.864C617.832 133.9 618.069 133.755 618.142 133.207C618.171 132.874 618.088 132.54 617.905 132.259C617.643 131.888 617.253 131.628 616.81 131.529C616.26 131.458 615.701 131.53 615.187 131.737C614.672 131.945 614.22 132.282 613.874 132.715C612.979 133.62 612.316 134.727 611.94 135.943C611.192 138.497 611.685 141.306 613.326 142.437C613.634 142.642 613.982 142.779 614.348 142.835C614.714 142.892 615.087 142.868 615.442 142.765C615.88 142.528 616.026 142.327 615.989 142.291Z" fill="#EB996E"/>
<path d="M642.766 108.729C648.986 104.552 655.351 106.686 659.583 109.185C663.815 111.684 667.426 115.241 671.786 117.539C676.145 119.837 681.854 120.64 685.776 117.667C687.144 116.454 688.249 114.973 689.024 113.317C689.799 111.661 690.226 109.864 690.281 108.036C690.583 104.534 690.189 101.006 689.121 97.6563C688.054 94.3067 686.334 91.2014 684.061 88.5194C682.857 87.1331 681.033 85.7651 679.355 86.4947C677.276 87.4067 677.531 90.4163 678.224 92.5869C678.224 92.5869 657.157 84.6343 644.225 88.9389C631.293 93.2435 642.766 108.729 642.766 108.729Z" fill="#263238"/>
<path d="M650.937 78.2866C651.065 78.2866 651.174 79.1804 651.813 80.7125C652.794 82.8219 654.147 84.7373 655.807 86.3669C658.253 88.7949 661.082 90.8038 664.18 92.3132C665.999 93.2054 667.923 93.8672 669.907 94.2831C671.986 94.7573 674.193 95.1039 676.437 95.7423C678.674 96.3035 680.751 97.3705 682.511 98.8613C684.126 100.298 685.377 102.099 686.159 104.114C686.863 105.936 687.108 107.903 686.87 109.842C686.579 111.897 685.709 113.826 684.362 115.406C683.015 116.985 681.247 118.149 679.264 118.761C678.635 118.94 677.985 119.038 677.331 119.053C676.893 119.053 676.656 119.053 676.656 119.053C676.656 119.053 677.586 118.944 679.136 118.396C681.294 117.582 683.131 116.091 684.371 114.146C685.232 112.837 685.776 111.344 685.958 109.787C686.144 108.001 685.887 106.197 685.21 104.534C684.467 102.688 683.299 101.045 681.799 99.7369C680.143 98.3284 678.183 97.3232 676.072 96.8002C673.92 96.1801 671.731 95.8335 669.615 95.341C667.579 94.9007 665.606 94.2083 663.742 93.2799C660.559 91.6849 657.682 89.5425 655.242 86.9506C653.571 85.2173 652.268 83.1635 651.412 80.9132C651.214 80.3188 651.067 79.7086 650.974 79.0892C650.919 78.5237 650.901 78.2866 650.937 78.2866Z" fill="#455A64"/>
<path d="M636.947 81.9529C637.057 81.9529 637.257 82.8831 637.95 84.47C638.997 86.6632 640.459 88.6329 642.255 90.2703C644.95 92.6706 648.11 94.4899 651.539 95.6146C655.779 96.977 660.114 98.0256 664.508 98.7519C668.994 99.4423 673.368 100.731 677.513 102.582C679.387 103.5 680.883 105.042 681.745 106.942C682.386 108.634 682.475 110.485 682 112.231C681.266 114.699 679.64 116.805 677.44 118.141C676.867 118.52 676.256 118.838 675.616 119.09C675.178 119.272 674.941 119.327 674.923 119.29C674.905 119.254 675.78 118.816 677.166 117.794C679.137 116.406 680.562 114.374 681.197 112.049C681.598 110.472 681.477 108.808 680.851 107.306C680.048 105.624 678.689 104.271 677.002 103.476C672.917 101.727 668.627 100.502 664.234 99.8281C659.783 99.1074 655.397 98.0277 651.12 96.5996C647.585 95.3812 644.352 93.4224 641.635 90.854C639.827 89.1069 638.415 86.9921 637.494 84.6524C637.25 84.0145 637.067 83.3549 636.947 82.6825C636.929 82.2082 636.911 81.9711 636.947 81.9529Z" fill="#455A64"/>
<path d="M682.183 150.462C681.708 150.718 680.121 148.365 677.075 147.289C674.029 146.212 671.275 146.942 671.074 146.45C670.874 145.957 671.567 145.702 672.789 145.337C674.431 144.89 676.172 144.966 677.768 145.556C679.348 146.106 680.71 147.148 681.654 148.529C682.328 149.587 682.42 150.353 682.183 150.462Z" fill="#263238"/>
<path d="M653.144 141.561C652.652 141.798 651.083 139.464 648.037 138.388C644.991 137.311 642.219 138.041 642.036 137.549C641.927 137.33 642.51 136.801 643.751 136.436C645.386 135.99 647.118 136.06 648.712 136.637C650.295 137.2 651.66 138.246 652.615 139.628C653.29 140.704 653.363 141.452 653.144 141.561Z" fill="#263238"/>
<path d="M656.008 162.72C657.782 162.783 659.541 163.071 661.243 163.577C662.064 163.778 662.848 163.887 663.158 163.395C663.513 162.619 663.622 161.753 663.468 160.914C663.468 158.78 663.341 156.536 663.268 154.202C663.085 144.644 663.268 136.91 663.614 136.91C663.961 136.91 664.471 144.644 664.672 154.183C664.672 156.536 664.672 158.762 664.672 160.914C664.826 162.018 664.587 163.142 663.997 164.088C663.788 164.323 663.528 164.507 663.238 164.627C662.947 164.747 662.633 164.8 662.319 164.781C661.848 164.736 661.383 164.638 660.933 164.489C659.223 164.111 657.568 163.517 656.008 162.72Z" fill="#263238"/>
<path d="M646.359 161.644C646.87 161.789 645.702 165.091 647.691 168.429C649.679 171.767 653.327 172.661 653.163 173.135C652.998 173.609 652.159 173.5 650.664 173.007C648.721 172.348 647.074 171.024 646.012 169.268C644.989 167.585 644.662 165.57 645.1 163.65C645.484 162.227 646.14 161.534 646.359 161.644Z" fill="#263238"/>
<path d="M658.069 124.635C657.467 125.346 654.567 123.887 650.864 123.048C647.162 122.209 643.915 122.154 643.696 121.224C643.605 120.786 644.389 120.202 645.83 119.801C647.731 119.369 649.706 119.377 651.603 119.826C653.5 120.275 655.269 121.152 656.774 122.391C657.832 123.394 658.324 124.288 658.069 124.635Z" fill="#263238"/>
<path d="M685.192 137.056C684.408 137.548 682.584 136.089 680.067 135.232C677.549 134.375 675.251 134.046 675.032 133.153C674.941 132.715 675.507 132.149 676.674 131.821C678.206 131.485 679.804 131.61 681.265 132.182C682.726 132.753 683.984 133.745 684.882 135.031C685.447 136.053 685.484 136.874 685.192 137.056Z" fill="#263238"/>
<path d="M642.364 218.753C643.313 223.751 644.663 258.534 642.091 272.634C637.276 298.827 601.142 356.538 598.789 361.153C597.403 363.852 567.471 432.38 567.471 432.38C567.471 432.38 437.164 391.905 430.671 358.909C430.671 358.909 474.684 326.077 485.555 316.082C487.707 314.075 527.598 245.383 527.598 245.383L551.657 203.796C551.657 203.796 570.262 185.556 579.856 185.556H600.978L642.364 218.753Z" fill="#7000FF"/>
<path opacity="0.4" d="M430.635 358.909C430.635 358.909 445.974 360.113 488.82 384.135C531.666 408.157 542.956 415.143 542.956 415.143L455.094 384.372C455.094 384.372 432.221 370.911 430.635 358.909Z" fill="black"/>
<path d="M577.576 185.629L553.609 187.763L484.789 201.863L514.52 257.258L590.417 249.962C590.417 249.962 608.803 213.719 601.981 205.839C595.159 197.959 577.576 185.629 577.576 185.629Z" fill="#7000FF"/>
<path opacity="0.4" d="M521.196 256.619L572.943 251.384L510.763 274.148L521.196 256.619Z" fill="black"/>
<path d="M587.517 251.02C587.517 251.275 573.983 252.844 557.238 254.321C540.494 255.798 526.869 256.929 526.851 256.674C526.832 256.419 540.385 254.85 557.147 253.373C573.91 251.895 587.499 250.764 587.517 251.02Z" fill="#263238"/>
<path d="M600.905 218.899C600.741 218.899 600.54 216.874 599.665 213.755C597.38 205.557 592.343 198.395 585.401 193.472C582.738 191.648 580.896 190.736 580.969 190.572C581.448 190.652 581.911 190.812 582.337 191.047C583.528 191.559 584.675 192.169 585.766 192.871C593.12 197.62 598.35 205.033 600.358 213.555C600.665 214.824 600.86 216.118 600.941 217.422C601.015 217.912 601.003 218.412 600.905 218.899Z" fill="#263238"/>
<path d="M499.472 318.197C500.346 317.931 501.244 317.754 502.154 317.668C503.978 317.395 506.367 316.939 509.45 316.264C512.532 315.589 516.107 314.641 520.047 313.382C528.582 310.603 536.752 306.806 544.379 302.073C547.881 299.866 550.946 297.75 553.499 295.835C556.053 293.92 557.95 292.315 559.263 291.166C559.927 290.538 560.641 289.964 561.397 289.451C560.856 290.172 560.245 290.838 559.573 291.439C558.315 292.68 556.418 294.376 553.973 296.364C551.098 298.675 548.096 300.825 544.981 302.803C541.154 305.215 537.182 307.389 533.089 309.315C528.981 311.205 524.759 312.838 520.448 314.203C516.925 315.3 513.344 316.208 509.723 316.921C506.622 317.504 504.105 317.887 502.336 318.033C501.388 318.17 500.43 318.225 499.472 318.197Z" fill="#263238"/>
<path d="M506.714 305.612C506.714 305.302 513.152 305.229 520.831 303.423C528.51 301.617 534.365 298.881 534.475 299.155C533.358 299.985 532.13 300.654 530.827 301.143C524.551 303.847 517.843 305.41 511.018 305.758C509.583 305.901 508.136 305.852 506.714 305.612Z" fill="#263238"/>
<path d="M579.4 364.308C578.607 364.77 577.777 365.167 576.919 365.494C575.314 366.205 572.925 367.135 569.97 368.211C554.45 373.753 538.175 376.89 521.707 377.514C518.551 377.623 515.998 377.642 514.247 377.514C513.332 377.528 512.417 377.473 511.511 377.35C512.413 377.187 513.33 377.12 514.247 377.149C516.071 377.149 518.551 376.985 521.67 376.784C529.843 376.275 537.976 375.251 546.021 373.72C554.048 372.158 561.968 370.086 569.733 367.518C572.706 366.533 575.114 365.694 576.773 365.092C577.619 364.738 578.499 364.475 579.4 364.308Z" fill="#263238"/>
<path d="M642.729 268.621L604.681 255.616C599.209 277.011 584.617 294.65 566.194 310.737L613.29 336.164C622.472 319.969 630.789 303.299 638.206 286.223C640.662 280.641 642.19 274.696 642.729 268.621Z" fill="#F5F5F5"/>
<path d="M613.108 251.384L609.897 261.544L615.096 264.006L618.142 253.227L613.108 251.384Z" fill="#E0E0E0"/>
<path d="M605.21 303.186C607.53 302.944 609.864 302.859 612.196 302.931L621.097 285.147L610.864 280.039L608.675 284.435L613.399 286.806L605.21 303.186Z" fill="#7000FF"/>
<path d="M633.263 297.203H633.518C634.266 295.087 635.105 293.008 636.017 290.965C635.204 290.308 634.323 289.74 633.39 289.269C631.627 288.269 629.644 287.719 627.618 287.668C625.591 287.617 623.583 288.067 621.772 288.977L624.489 293.537C625.435 293.053 626.485 292.808 627.547 292.824C628.609 292.84 629.651 293.116 630.582 293.628C632.533 294.54 633.39 295.744 633.263 297.203Z" fill="#7000FF"/>
<path d="M615.88 302C613.418 302.402 611.411 302.274 609.004 302.876L607.508 305.794L612.98 308.53L616.318 301.873L615.88 302Z" fill="#7000FF"/>
<path d="M630.472 303.441H630.144L618.561 306.943L616.737 310.591L624.708 314.568C624.783 314.319 624.875 314.075 624.982 313.838C625.589 312.575 626.284 311.356 627.061 310.19L626.678 310.008L627.298 309.807L630.472 303.441Z" fill="#7000FF"/>
<path d="M627.152 299.556C626.676 299.809 626.166 299.994 625.638 300.103C624.635 300.413 623.194 300.778 621.388 301.198C616.672 302.262 611.897 303.048 607.088 303.551C602.29 304.047 597.466 304.254 592.642 304.171C590.818 304.171 589.286 304.061 588.246 303.97C587.709 303.978 587.174 303.904 586.66 303.751C588.641 303.543 590.632 303.458 592.624 303.496C596.272 303.405 601.397 303.168 606.997 302.602C612.597 302.037 617.613 301.198 621.243 300.541C623.19 300.087 625.163 299.758 627.152 299.556Z" fill="#263238"/>
<path d="M537.685 424.099C536.682 427.108 458.359 544.665 391.072 568.779L361.888 564.255L207.213 518.655L224.285 475.463L368.91 506.598L435.395 431.285L455.459 379.338L537.685 424.099Z" fill="#FFBE9D"/>
<path d="M216.315 521.281L280.757 540.269L295.932 490.784L225.015 474.003L216.315 521.281Z" fill="#455A64"/>
<path d="M218.832 520.753L217.646 520.953C217.646 520.953 180.017 560.589 171.098 557.434L210.095 466.379L233.953 476.466L231.746 479.476C222.936 491.532 219.197 505.814 218.832 520.753Z" fill="#7000FF"/>
<g opacity="0.6">
<path d="M224.979 485.039C225.088 484.048 224.829 483.053 224.25 482.241C223.671 481.43 222.813 480.861 221.841 480.643C220.856 480.502 219.854 480.742 219.041 481.315C218.227 481.888 217.663 482.75 217.464 483.725C217.346 484.777 217.625 485.834 218.246 486.691C218.866 487.548 219.784 488.143 220.82 488.358C221.853 488.401 222.862 488.046 223.642 487.368C224.422 486.69 224.914 485.739 225.015 484.71" fill="white"/>
</g>
<g opacity="0.6">
<path d="M210.095 466.343L217.391 469.754L177.263 555.773C177.263 555.773 173.761 559.075 171.116 557.397L210.095 466.343Z" fill="white"/>
</g>
<path d="M217.482 522.631C217.044 522.431 217.792 520.114 217.3 517.324C216.807 514.533 215.476 512.563 215.786 512.216C216.096 511.87 218.43 513.657 218.959 517.05C219.488 520.443 217.847 522.905 217.482 522.631Z" fill="#263238"/>
<path d="M209.438 530.493C208.964 530.402 209.037 528.158 207.797 525.842C206.556 523.525 204.769 522.194 204.969 521.811C205.17 521.428 207.815 522.175 209.292 525.076C210.77 527.976 209.876 530.657 209.438 530.493Z" fill="#263238"/>
<path d="M195.685 531.04C195.776 530.602 198.257 530.93 200.209 533.119C202.16 535.308 202.233 537.789 201.777 537.825C201.321 537.862 200.573 536.001 198.95 534.177C197.327 532.353 195.539 531.478 195.685 531.04Z" fill="#263238"/>
<path d="M218.248 521.756C218.485 520.089 219.172 518.519 220.236 517.214C221.233 515.693 222.409 514.297 223.738 513.056C224.527 512.326 225.369 511.656 226.255 511.049C226.754 510.65 227.315 510.336 227.915 510.119C228.356 509.961 228.836 509.956 229.28 510.105C229.723 510.254 230.104 510.548 230.359 510.94C230.578 511.291 230.709 511.69 230.741 512.103C230.773 512.516 230.704 512.93 230.542 513.311C230.312 513.897 229.985 514.439 229.575 514.916C228.922 515.791 228.189 516.603 227.386 517.342C226.036 518.587 224.497 519.609 222.826 520.37C221.358 521.221 219.665 521.603 217.974 521.464C217.974 521.191 219.798 520.771 222.279 519.312C223.752 518.458 225.113 517.422 226.328 516.229C227.022 515.518 227.662 514.756 228.244 513.949C228.918 513.092 229.265 512.271 228.955 511.852C228.645 511.432 228.772 511.651 228.389 511.724C227.958 511.89 227.553 512.118 227.186 512.399C226.348 512.96 225.544 513.569 224.778 514.223C223.447 515.318 222.225 516.54 221.13 517.871C219.251 520.206 218.394 521.92 218.248 521.756Z" fill="#263238"/>
<path d="M217.774 520.898C219.447 520.597 221.173 520.84 222.699 521.592C224.419 522.234 226.017 523.165 227.423 524.346C228.253 525.053 229.011 525.841 229.684 526.699C230.184 527.198 230.545 527.819 230.731 528.5C230.916 529.182 230.92 529.9 230.742 530.584C230.566 530.989 230.275 531.334 229.906 531.577C229.537 531.819 229.105 531.95 228.663 531.952C228.046 531.954 227.432 531.868 226.839 531.696C225.756 531.42 224.722 530.977 223.775 530.383C222.17 529.409 220.834 528.048 219.89 526.425C218.303 523.634 218.558 521.555 218.722 521.573C219.368 523.011 220.092 524.411 220.893 525.768C221.852 527.119 223.097 528.24 224.541 529.052C225.373 529.527 226.27 529.877 227.204 530.091C228.244 530.365 229.174 530.347 229.228 529.945C229.262 529.536 229.208 529.124 229.07 528.737C228.932 528.35 228.712 527.997 228.426 527.702C227.83 526.914 227.165 526.182 226.438 525.513C225.183 524.382 223.777 523.43 222.261 522.686C219.598 521.409 217.737 521.172 217.774 520.898Z" fill="#263238"/>
<path d="M288.235 490.31C288.191 490.934 288.056 491.549 287.834 492.134C287.432 493.502 286.94 495.162 286.374 497.114L281.431 513.53C279.607 519.822 277.783 525.513 276.525 529.946C275.923 531.879 275.412 533.594 274.974 534.907C274.842 535.545 274.615 536.16 274.3 536.731C274.335 536.112 274.446 535.499 274.628 534.907C274.901 533.703 275.321 531.97 275.868 529.854C276.963 525.604 278.586 519.749 280.519 513.347C282.453 506.945 284.313 501.163 285.736 496.931C286.447 494.852 287.031 493.174 287.469 492.025C287.656 491.425 287.913 490.85 288.235 490.31Z" fill="#FAFAFA"/>
<path d="M282.307 490.31C282.239 490.932 282.098 491.545 281.887 492.134C281.486 493.502 281.012 495.162 280.428 497.114L275.485 513.53C273.661 519.822 271.837 525.513 270.579 529.946L269.046 534.907C268.893 535.539 268.666 536.151 268.372 536.731C268.394 536.112 268.498 535.499 268.682 534.907C268.955 533.703 269.375 531.97 269.94 529.854C271.035 525.604 272.658 519.749 274.573 513.347C276.488 506.945 278.367 501.163 279.79 496.931C280.501 494.852 281.103 493.174 281.614 492.025C281.778 491.428 282.011 490.853 282.307 490.31Z" fill="#FAFAFA"/>
<path d="M549.942 419.776C552.952 421.782 656.209 526.662 658.215 534.688C660.221 542.713 696.391 703.408 696.391 703.408L661.243 713.44C661.243 713.44 611.995 617.023 611.995 614.014C611.995 611.004 595.324 566.59 595.324 566.59L532.687 511.523L467.388 452.28L549.942 419.776Z" fill="#FFBE9D"/>
<path d="M708.412 714.972L686.232 651.57L637.184 668.095L664.927 735.474L708.412 714.972Z" fill="#455A64"/>
<path d="M706.515 713.239L707.372 714.078C707.372 714.078 761.508 721.538 764.116 730.64L667.444 752.072L661.699 726.828H665.438C680.377 726.956 694.148 721.666 706.515 713.239Z" fill="#7000FF"/>
<g opacity="0.6">
<path d="M673.92 729.072C673.05 729.562 672.392 730.357 672.072 731.303C671.752 732.249 671.793 733.28 672.187 734.197C672.632 735.093 673.406 735.783 674.347 736.123C675.288 736.463 676.324 736.426 677.239 736.021C678.173 735.503 678.878 734.653 679.216 733.64C679.553 732.627 679.499 731.524 679.063 730.549C678.491 729.673 677.601 729.052 676.581 728.817C675.561 728.583 674.489 728.752 673.591 729.291" fill="white"/>
</g>
<g opacity="0.6">
<path d="M667.426 752.072L665.949 744.192L759.21 726.591C759.21 726.591 763.934 727.503 764.116 730.64L667.426 752.072Z" fill="white"/>
</g>
<path d="M708.904 713.24C708.995 713.714 706.679 714.444 704.691 716.486C702.702 718.529 701.9 720.773 701.426 720.682C700.951 720.59 701.043 717.708 703.505 715.21C705.967 712.711 708.904 712.784 708.904 713.24Z" fill="#263238"/>
<path d="M719.848 715.264C720.049 715.684 718.188 716.942 717.021 719.295C715.853 721.648 715.872 723.874 715.397 723.946C714.923 724.019 714.029 721.429 715.525 718.474C717.021 715.52 719.848 714.735 719.848 715.264Z" fill="#263238"/>
<path d="M728.348 726.044C727.947 726.244 726.761 724.019 727.399 721.174C728.038 718.328 730.026 716.796 730.3 717.143C730.573 717.489 729.533 719.186 729.041 721.538C728.548 723.891 728.804 725.898 728.348 726.044Z" fill="#263238"/>
<path d="M707.719 713.203C706.222 713.973 704.547 714.332 702.867 714.243C701.032 714.329 699.193 714.182 697.395 713.805C696.341 713.597 695.304 713.311 694.294 712.948C693.682 712.777 693.102 712.506 692.579 712.145C692.197 711.877 691.914 711.491 691.772 711.046C691.63 710.601 691.638 710.122 691.795 709.683C691.963 709.304 692.214 708.967 692.53 708.699C692.846 708.431 693.218 708.237 693.619 708.132C694.216 707.993 694.831 707.944 695.443 707.986C696.535 708.002 697.622 708.124 698.69 708.351C700.481 708.732 702.203 709.384 703.797 710.285C706.515 711.871 707.664 713.458 707.445 713.586C707.226 713.714 705.858 712.565 703.195 711.343C701.638 710.656 700.002 710.166 698.325 709.883C697.343 709.712 696.348 709.627 695.352 709.628C694.276 709.628 693.4 709.774 693.236 710.285C693.236 710.485 693.236 710.558 693.473 710.814C693.862 711.068 694.286 711.265 694.732 711.397C695.668 711.767 696.632 712.066 697.614 712.291C699.274 712.713 700.973 712.97 702.684 713.057C704.364 712.986 706.046 713.034 707.719 713.203Z" fill="#263238"/>
<path d="M707.244 714.005C707.098 714.115 705.785 712.637 704.928 709.61C704.446 707.828 704.273 705.977 704.417 704.138C704.51 703.046 704.705 701.965 705.001 700.909C705.12 700.213 705.419 699.559 705.866 699.013C706.314 698.466 706.895 698.045 707.554 697.79C707.985 697.704 708.432 697.742 708.842 697.9C709.253 698.059 709.609 698.33 709.871 698.684C710.245 699.199 710.546 699.764 710.765 700.362C711.169 701.401 711.415 702.496 711.494 703.609C711.627 705.484 711.295 707.364 710.527 709.081C709.196 711.999 707.354 713.002 707.281 712.856C708.067 711.491 708.78 710.085 709.415 708.643C709.95 707.073 710.131 705.403 709.944 703.755C709.836 702.802 709.597 701.869 709.232 700.982C708.849 699.979 708.284 699.158 707.919 699.432C707.554 699.705 706.788 700.49 706.588 701.383C706.289 702.328 706.081 703.299 705.967 704.284C705.775 705.959 705.818 707.654 706.095 709.318C706.588 712.218 707.481 713.878 707.244 714.005Z" fill="#263238"/>
<path d="M641.288 674.625C641.86 674.29 642.473 674.033 643.112 673.859L648.019 672.145L664.216 666.581L680.431 661L685.356 659.34C685.944 659.11 686.556 658.945 687.18 658.848C686.653 659.21 686.075 659.492 685.466 659.687C684.335 660.179 682.675 660.836 680.632 661.62C676.546 663.207 670.855 665.268 664.508 667.475C658.16 669.682 652.36 671.488 648.165 672.783L643.167 674.224C642.558 674.429 641.928 674.563 641.288 674.625Z" fill="#FAFAFA"/>
<path d="M644.754 679.44C645.327 679.113 645.94 678.861 646.578 678.693L651.466 676.96L667.682 671.397L683.879 665.815C685.812 665.177 687.527 664.63 688.804 664.155C689.387 663.915 690.001 663.756 690.628 663.681C690.091 664.023 689.515 664.298 688.913 664.502C687.782 664.994 686.122 665.651 684.079 666.454C679.975 668.022 674.284 670.102 667.955 672.309C661.626 674.516 655.844 676.321 651.649 677.598C649.533 678.237 647.836 678.729 646.651 679.039C646.036 679.245 645.4 679.38 644.754 679.44Z" fill="#FAFAFA"/>
<path d="M455.587 379.247C455.587 379.247 400.411 448.559 387.223 454.031C383.01 455.855 398.167 473.529 398.167 473.529L405.664 465.048C429.485 477.579 447.926 493.995 466.896 517.068L499.728 486.17L527.38 522.777L606.085 474.077L567.435 432.453C567.435 432.453 515.359 385.521 468.373 372.936C468.41 372.863 462.974 372.826 455.587 379.247Z" fill="#263238"/>
<path d="M540.038 441.664C539.858 441.972 539.643 442.26 539.4 442.521L537.448 444.893C535.715 446.917 533.18 449.799 530.024 453.356C523.695 460.451 514.849 470.155 504.817 480.716C494.785 491.277 485.501 500.506 478.515 506.981C475.013 510.192 472.167 512.782 470.106 514.478L467.735 516.448C467.475 516.697 467.18 516.906 466.859 517.068C467.08 516.786 467.33 516.529 467.607 516.302L469.851 514.205C471.821 512.381 474.593 509.772 478.04 506.507C484.88 499.923 494.11 490.584 504.124 480.077C514.137 469.571 523.057 460.014 529.495 452.973L537.156 444.71L539.254 442.485C539.488 442.186 539.75 441.911 540.038 441.664Z" fill="#455A64"/>
<path d="M467.516 515.901C467.516 515.901 467.224 515.682 466.75 515.189L464.743 513.019C463.011 511.195 460.457 508.422 457.228 505.157C454 501.892 450.06 498.098 445.555 494.049C441.05 490 435.888 485.75 430.306 481.5C424.725 477.25 419.216 473.529 414.109 470.228C409.002 466.926 404.278 464.208 400.247 462.001C396.216 459.794 392.951 458.062 390.634 456.912L388.008 455.563C387.694 455.415 387.394 455.238 387.114 455.034C387.45 455.105 387.776 455.221 388.081 455.38L390.798 456.584C393.151 457.624 396.489 459.265 400.575 461.418C404.661 463.57 409.403 466.27 414.583 469.498C419.764 472.727 425.272 476.52 430.89 480.752C436.508 484.984 441.597 489.325 446.139 493.392C450.68 497.46 454.565 501.327 457.721 504.683C460.877 508.039 463.375 510.793 465.017 512.782L466.841 515.062C467.1 515.312 467.326 515.594 467.516 515.901Z" fill="#455A64"/>
<path d="M497.849 382.53C497.632 382.865 497.388 383.182 497.119 383.478L494.894 386.105L486.631 395.717C479.664 403.834 470.124 415.106 459.837 427.765C449.549 440.424 440.484 452.115 433.972 460.597L426.275 470.665L424.159 473.383C423.921 473.706 423.658 474.011 423.375 474.295C423.552 473.928 423.766 473.58 424.013 473.256C424.524 472.544 425.181 471.596 425.983 470.428C427.716 467.984 430.252 464.482 433.444 460.196C439.809 451.586 448.802 439.858 459.107 427.181C469.413 414.504 479.08 403.36 486.121 395.28C489.677 391.267 492.578 387.984 494.62 385.868L496.973 383.351C497.229 383.041 497.523 382.765 497.849 382.53Z" fill="#FAFAFA"/>
<path d="M491.848 382.165C491.629 382.487 491.385 382.792 491.118 383.077L488.875 385.612L480.539 394.732C473.517 402.503 463.886 413.319 453.508 425.467C443.129 437.615 433.918 448.96 427.315 457.077L419.526 466.726C418.651 467.802 417.94 468.677 417.374 469.334C417.143 469.652 416.88 469.945 416.59 470.209C416.754 469.852 416.969 469.52 417.228 469.225L419.235 466.507C421.059 464.154 423.557 460.779 426.786 456.657C433.261 448.394 442.363 437.122 452.76 424.956C463.157 412.79 472.824 402.028 480.028 394.368C483.676 390.519 486.522 387.455 488.583 385.357L490.954 382.949C491.214 382.647 491.515 382.383 491.848 382.165Z" fill="#FAFAFA"/>
<path d="M554.211 503.68C553.992 503.826 547.133 494.56 538.889 482.923C530.645 471.286 524.133 461.783 524.297 461.618C524.461 461.454 531.356 470.738 539.619 482.375C547.881 494.013 554.429 503.68 554.211 503.68Z" fill="#455A64"/>
<path d="M647.326 301.508C647.125 303.605 643.495 308.658 639.008 311.285C634 314.357 628.824 317.146 623.504 319.638C613.381 324.545 534.274 352.908 534.274 352.908L541.242 337.386L539.527 327.245C561.324 322.52 621.188 304.663 636.619 294.413C639.793 292.297 641.909 287.664 639.081 284.453L639.428 283.359C639.428 283.359 640.905 283.031 645.593 291.02C647.297 294.234 647.905 297.916 647.326 301.508Z" fill="#7000FF"/>
<g opacity="0.3">
<path d="M647.326 301.508C647.125 303.605 643.495 308.658 639.008 311.285C634 314.357 628.824 317.146 623.504 319.638C613.381 324.545 534.274 352.908 534.274 352.908L541.242 337.386L539.527 327.245C561.324 322.52 621.188 304.663 636.619 294.413C639.793 292.297 641.909 287.664 639.081 284.453L639.428 283.359C639.428 283.359 640.905 283.031 645.593 291.02C647.297 294.234 647.905 297.916 647.326 301.508Z" fill="black"/>
</g>
<path d="M418.888 337.897L495.624 328.467L505.017 333.556L487.106 354.422C487.106 354.422 390.014 362.557 366.722 376.456C344.396 389.735 338.121 423.223 302.699 426.507C267.277 429.79 177.828 392.562 160.044 400.971L149.501 373.191C149.501 373.191 202.835 374.176 242.27 388.403C281.705 402.63 294.163 405.841 314.336 388.403C334.51 370.966 351.728 354.294 386.731 345.959C408.09 340.797 418.888 337.897 418.888 337.897Z" fill="#7000FF"/>
<g opacity="0.3">
<path d="M418.888 337.897L495.624 328.467L505.017 333.556L487.106 354.422C487.106 354.422 390.014 362.557 366.722 376.456C344.396 389.735 338.121 423.223 302.699 426.507C267.277 429.79 177.828 392.562 160.044 400.971L149.501 373.191C149.501 373.191 202.835 374.176 242.27 388.403C281.705 402.63 294.163 405.841 314.336 388.403C334.51 370.966 351.728 354.294 386.731 345.959C408.09 340.797 418.888 337.897 418.888 337.897Z" fill="black"/>
</g>
<path d="M351.71 156.992C351.71 157.248 322.216 157.467 285.845 157.467C249.475 157.467 219.981 157.248 219.981 156.992C219.981 156.737 249.457 156.518 285.845 156.518C322.234 156.518 351.71 156.737 351.71 156.992Z" fill="#455A64"/>
<path d="M266.621 188.365C266.621 188.62 252.229 188.839 234.5 188.839C216.771 188.839 202.379 188.62 202.379 188.365C202.379 188.11 216.752 187.891 234.5 187.891C252.247 187.891 266.621 188.128 266.621 188.365Z" fill="#455A64"/>
<path d="M309.995 173.135C309.995 173.39 251.007 173.609 178.229 173.609C105.452 173.609 46.4637 173.39 46.4637 173.135C46.4637 172.879 105.452 172.66 178.229 172.66C251.007 172.66 309.995 172.861 309.995 173.135Z" fill="#455A64"/>
<path d="M545.419 619.085C545.419 619.358 515.943 619.559 479.554 619.559C443.165 619.559 413.69 619.358 413.69 619.085C413.69 618.811 443.184 618.61 479.554 618.61C515.925 618.61 545.419 618.829 545.419 619.085Z" fill="#455A64"/>
<path d="M503.722 635.227C503.722 635.483 444.716 635.701 371.956 635.701C299.197 635.701 240.172 635.483 240.172 635.227C240.172 634.972 299.161 634.753 371.956 634.753C444.752 634.753 503.722 635.008 503.722 635.227Z" fill="#455A64"/>
<path d="M78.8032 719.149C79.9888 714.553 76.9792 709.938 73.5866 706.582C70.1939 703.225 66.1629 700.252 64.4666 695.838C61.6029 688.688 65.4515 679.422 60.5815 673.458C57.7178 669.956 52.5741 668.77 50.0387 665.031C48.8727 662.953 48.0998 660.677 47.7587 658.319C45.0466 646.436 39.2019 635.496 30.832 626.636C30.2611 637.225 32.5546 647.773 37.4714 657.169C39.4413 660.927 41.849 664.593 42.5056 668.77C43.5635 675.574 39.7696 682.578 41.4477 689.254C43.3629 696.896 51.9357 702.022 52.3917 709.865C52.7383 716.504 46.9197 722.341 47.3757 728.98C47.7209 731.804 48.7338 734.505 50.3306 736.86C55.4743 745.396 63.0986 751.288 74.4621 751.105L88.4704 751.58L78.8032 719.149Z" fill="#7000FF"/>
<g opacity="0.3">
<path d="M78.8032 719.149C79.9888 714.553 76.9792 709.938 73.5866 706.582C70.1939 703.225 66.1629 700.252 64.4666 695.838C61.6029 688.688 65.4515 679.422 60.5815 673.458C57.7178 669.956 52.5741 668.77 50.0387 665.031C48.8727 662.953 48.0998 660.677 47.7587 658.319C45.0466 646.436 39.2019 635.496 30.832 626.636C30.2611 637.225 32.5546 647.773 37.4714 657.169C39.4413 660.927 41.849 664.593 42.5056 668.77C43.5635 675.574 39.7696 682.578 41.4477 689.254C43.3629 696.896 51.9357 702.022 52.3917 709.865C52.7383 716.504 46.9197 722.341 47.3757 728.98C47.7209 731.804 48.7338 734.505 50.3306 736.86C55.4743 745.396 63.0986 751.288 74.4621 751.105L88.4704 751.58L78.8032 719.149Z" fill="black"/>
</g>
<path d="M91.2064 751.963C92.4848 752.157 93.7873 752.126 95.055 751.872C96.6106 751.647 98.1388 751.262 99.6151 750.722C101.624 750.016 103.499 748.974 105.16 747.64C106.181 746.826 106.978 745.765 107.476 744.557C107.911 743.208 108.133 741.798 108.133 740.38C108.133 738.903 108.133 737.389 108.461 735.839C108.742 734.242 109.324 732.713 110.176 731.333C111.836 728.433 114.572 725.679 115.466 721.739C116.136 717.661 116.006 713.492 115.083 709.464C114.426 705.25 113.806 700.672 115.411 696.294C117.016 691.917 120.062 687.904 121.576 683.016C123.09 678.127 122.397 672.655 122.725 667.366C122.821 664.676 123.441 662.03 124.549 659.577C125.68 657.096 127.249 654.762 128.471 652.153C130.97 646.864 131.407 640.881 132.119 635.026C132.447 632.071 132.794 629.08 133.122 626.07C133.333 623.039 133.859 620.037 134.691 617.114C135.637 614.159 136.752 611.26 138.028 608.432C138.703 606.974 139.252 605.46 139.67 603.909C139.905 602.313 140.051 600.705 140.108 599.093C140.292 595.862 140.194 592.622 139.816 589.408C139.433 586.161 138.849 582.969 138.503 579.722V579.157V578.519L137.919 578.81C134.95 580.322 132.372 582.501 130.386 585.176C128.433 587.783 126.866 590.658 125.735 593.712C123.741 599.688 122.282 605.828 121.375 612.062C120.501 618.014 118.548 623.756 115.612 629.007C114.079 631.506 112.219 633.786 110.596 636.303C108.826 638.611 107.593 641.284 106.984 644.128C106.145 650.056 109.41 655.272 108.808 660.544C108.495 663.132 107.623 665.621 106.254 667.84C104.978 670.083 103.482 672.163 102.059 674.242C100.61 676.28 99.3522 678.448 98.3018 680.717C97.3196 682.938 96.7391 685.316 96.5872 687.74C96.2407 692.464 96.9155 696.86 96.5872 701.183C96.1896 705.208 95.0125 709.117 93.1216 712.692C91.4253 716.158 89.4736 719.258 87.9597 722.286C87.18 723.739 86.4739 725.231 85.8439 726.755C85.2758 728.185 84.8601 729.67 84.6035 731.187C84.2126 733.836 84.2126 736.528 84.6035 739.176C84.9662 742.885 86.3488 746.42 88.5981 749.391C88.9493 749.827 89.3335 750.236 89.7472 750.613C90.0215 750.907 90.3273 751.17 90.6592 751.397L91.4618 751.963C90.4651 751.159 89.5543 750.254 88.744 749.263C86.5901 746.292 85.2792 742.795 84.9501 739.14C84.626 736.519 84.6813 733.865 85.1143 731.26C85.3858 729.782 85.8012 728.335 86.3546 726.937C86.9153 725.448 87.5484 723.987 88.2515 722.56C89.8384 719.568 91.7354 716.468 93.4682 712.984C95.4414 709.358 96.681 705.379 97.1162 701.274C97.4992 696.951 96.8426 692.446 97.1162 687.831C97.2627 685.487 97.8311 683.188 98.7943 681.046C99.8112 678.827 101.033 676.708 102.442 674.716C103.865 672.637 105.379 670.558 106.674 668.259C108.1 665.957 109.014 663.376 109.355 660.69C110.03 655.108 106.783 649.855 107.641 644.274C108.18 641.509 109.327 638.899 110.997 636.631C112.584 634.242 114.462 631.962 116.049 629.335C119.035 623.991 121.031 618.152 121.941 612.098C122.831 605.901 124.277 599.796 126.264 593.858C127.413 590.955 128.967 588.229 130.878 585.76C132.803 583.184 135.301 581.092 138.174 579.649L137.518 579.285C137.518 579.467 137.518 579.668 137.518 579.85C137.864 583.133 138.448 586.343 138.831 589.554C139.234 592.717 139.356 595.909 139.196 599.093C139.196 600.662 139.013 602.304 138.776 603.781C138.364 605.274 137.833 606.732 137.189 608.14C135.901 610.999 134.775 613.928 133.815 616.914C132.982 619.892 132.457 622.948 132.246 626.034C131.9 629.062 131.572 632.053 131.243 635.008C130.587 640.881 130.131 646.773 127.741 651.88C126.556 654.415 124.987 656.75 123.82 659.322C122.7 661.867 122.081 664.604 121.996 667.384C121.704 672.856 122.397 678.091 120.938 682.87C119.478 687.648 116.432 691.625 114.882 696.148C113.332 700.672 113.915 705.451 114.572 709.628C115.515 713.577 115.67 717.675 115.028 721.684C114.225 725.442 111.562 728.178 109.866 731.151C108.96 732.58 108.34 734.173 108.042 735.839C107.858 737.364 107.761 738.899 107.75 740.435C107.745 741.813 107.542 743.182 107.148 744.503C106.678 745.65 105.932 746.665 104.978 747.457C103.341 748.786 101.491 749.829 99.5056 750.54C98.0557 751.1 96.5521 751.509 95.0186 751.762C94.0797 751.935 93.1277 752.027 92.1731 752.036L91.2064 751.963Z" fill="#263238"/>
<path d="M135.493 586.854C135.42 586.991 135.371 587.139 135.347 587.292C135.347 587.62 135.165 588.04 135.037 588.55C134.764 589.645 134.435 591.323 133.906 593.402C133.377 595.482 132.082 597.816 131.006 600.698C129.93 603.58 128.726 606.9 127.668 610.639C126.61 614.378 125.644 618.537 124.659 622.969C123.805 627.721 122.295 632.331 120.172 636.667C119.022 638.929 117.727 641.246 116.706 643.763C115.695 646.348 115.015 649.051 114.681 651.807C113.978 657.504 112.974 663.16 111.672 668.752C108.863 680.243 106.2 691.187 103.737 701.146L97.0979 727.539L92.7021 745.378C92.2096 747.421 91.8266 749.026 91.553 750.23C91.4435 750.74 91.3523 751.16 91.2611 751.488C91.2363 751.639 91.2363 751.793 91.2611 751.944C91.3326 751.813 91.3819 751.672 91.407 751.525C91.5165 751.196 91.6259 750.777 91.7719 750.266C92.1002 749.05 92.5379 747.445 93.0851 745.451C94.216 741.201 95.8029 735.145 97.7728 727.703C99.7427 720.261 102.041 711.287 104.595 701.346C107.148 691.406 109.756 680.443 112.602 668.952C113.911 663.338 114.916 657.657 115.612 651.934C115.931 649.249 116.587 646.614 117.563 644.091C118.548 641.629 119.825 639.33 120.974 637.032C123.103 632.63 124.607 627.952 125.443 623.133C126.41 618.683 127.267 614.542 128.343 610.803C129.419 607.064 130.441 603.762 131.517 600.881C132.593 597.999 133.779 595.627 134.308 593.475C134.836 591.323 135.055 589.699 135.274 588.569L135.493 587.292V586.854Z" fill="#263238"/>
<path d="M93.687 751.999C102.807 746.527 105.452 730.111 101.64 720.097C97.8275 710.084 91.1334 701.073 90.112 690.476C89.3094 682.341 91.936 673.968 90.112 666.016C87.5402 655.272 77.0522 646.937 77.1799 635.902C77.1799 629.7 80.8278 623.863 80.4813 617.662C80.1347 610.055 74.3162 604.036 70.7046 597.342C65.2326 587.11 64.8131 574.998 62.9162 563.507C61.0192 552.016 56.6598 539.795 46.5002 534.086C44.9862 543.844 42.4326 550.502 43.2352 563.726C43.527 568.468 49.0355 577.534 49.7834 587.93C50.2394 594.15 50.5494 600.37 50.9142 606.59C50.9858 612.662 51.9759 618.689 53.8509 624.465C55.5107 628.806 58.192 632.746 59.4141 637.233C61.7488 645.66 58.6845 654.78 60.5632 663.316C62.1501 670.612 67.1661 676.777 68.1875 684.11C69.6103 694.416 62.9527 705.122 66.3635 714.954C68.0599 719.824 72.0727 723.745 73.2035 728.78C74.0973 732.683 73.2035 736.824 73.9331 740.745C75.2099 747.074 87.2848 751.981 93.7235 751.58" fill="#7000FF"/>
<path d="M48.9808 543.808C48.9607 543.989 48.9607 544.173 48.9808 544.355L49.1997 545.96C49.4004 547.364 49.6375 549.426 50.1117 552.107C50.586 554.788 51.9357 557.816 53.1213 561.464C54.3069 565.112 55.456 569.307 56.4775 573.995C57.4989 578.682 58.3015 583.899 59.3047 589.481C60.0485 595.514 61.6325 601.414 64.0106 607.009C65.2874 609.928 66.7283 612.864 67.8045 615.983C68.8796 619.188 69.5416 622.516 69.7744 625.888C70.2838 633.038 71.1788 640.156 72.4557 647.21C75.2647 661.656 77.9277 675.409 80.3719 687.94C82.816 700.471 85.242 711.652 87.1754 721.1C89.1088 730.549 90.8234 738.118 91.8448 743.463C92.4103 746.034 92.848 748.077 93.1581 749.518C93.3223 750.175 93.4317 750.686 93.5229 751.087C93.6141 751.488 93.6688 751.634 93.6871 751.616C93.7053 751.598 93.6871 751.434 93.6871 751.069C93.6871 750.704 93.5229 750.139 93.4135 749.482C93.1399 748.023 92.7568 745.98 92.2644 743.39C91.2247 738.027 89.729 730.403 87.8685 720.973C86.008 711.543 83.7463 700.252 81.2474 687.776L73.4224 647.064C72.1487 640.027 71.2476 632.928 70.7229 625.796C70.4764 622.349 69.7899 618.947 68.68 615.673C67.5674 612.499 66.1082 609.545 64.8131 606.644C62.4475 601.145 60.8575 595.344 60.089 589.408C59.1405 583.808 58.265 578.61 57.1341 573.904C56.1776 569.665 55.0087 565.476 53.632 561.354C52.4647 557.706 51.0419 554.679 50.4947 552.07C49.9475 549.462 49.6739 547.346 49.4186 545.96C49.2909 545.303 49.1997 544.774 49.1085 544.373C49.0943 544.179 49.0513 543.989 48.9808 543.808Z" fill="#263238"/>
<path d="M549.596 681.21C551.434 681.528 553.19 682.213 554.757 683.226C556.324 684.238 557.67 685.556 558.716 687.102C560.786 690.206 562.115 693.744 562.601 697.444C563.75 704.557 561.78 712.583 559.117 719.332C551.821 715.884 548.173 707.439 546.44 703.025C543.814 696.057 543.303 681.885 549.614 681.265" fill="#7000FF"/>
<path d="M569.003 728.743C568.06 726.887 567.625 724.815 567.74 722.736C567.855 720.657 568.518 718.646 569.66 716.905C570.831 715.182 572.334 713.71 574.082 712.576C575.83 711.442 577.787 710.669 579.838 710.303C580.754 710.032 581.719 709.965 582.665 710.107C583.61 710.248 584.513 710.596 585.31 711.123C585.97 711.736 586.453 712.514 586.71 713.377C586.966 714.24 586.987 715.156 586.769 716.03C586.338 717.809 585.43 719.436 584.142 720.736C580.002 725.296 575.168 728.944 569.003 728.834" fill="#7000FF"/>
<path d="M567.489 751.926C567.376 751.441 567.308 750.947 567.289 750.449C567.197 749.409 567.07 748.059 566.924 746.436C566.38 741.998 566.558 737.501 567.453 733.121C568.423 728.72 570.551 724.658 573.618 721.356C574.55 720.376 575.597 719.513 576.737 718.784C577.045 718.578 577.369 718.395 577.704 718.237C577.923 718.109 578.032 718.055 578.05 718.073C576.543 719.109 575.143 720.294 573.873 721.611C570.952 724.929 568.919 728.933 567.964 733.248C567.084 737.58 566.857 742.019 567.289 746.418C567.398 748.114 567.471 749.482 567.489 750.449C567.525 750.941 567.525 751.434 567.489 751.926Z" fill="#263238"/>
<path d="M550.946 691.971C551.042 692.165 551.121 692.366 551.183 692.573L551.785 694.306C552.295 695.838 553.007 698.045 553.882 700.763C555.597 706.235 557.877 713.823 560.193 722.25C562.51 730.676 564.443 738.355 565.665 743.937C566.322 746.728 566.833 748.989 567.161 750.54C567.325 751.288 567.453 751.89 567.544 752.364C567.595 752.567 567.626 752.775 567.635 752.984C567.55 752.79 567.483 752.588 567.435 752.382C567.325 751.926 567.161 751.324 566.979 750.558C566.559 748.935 565.994 746.709 565.301 743.992C563.896 738.52 561.908 730.768 559.591 722.341C557.275 713.914 555.068 706.326 553.426 700.836C552.624 698.136 551.985 695.929 551.511 694.342C551.292 693.613 551.128 693.029 551 692.518C550.968 692.338 550.949 692.155 550.946 691.971Z" fill="#263238"/>
<path d="M560.157 735.729C558.28 731.747 555.481 728.27 551.991 725.587C548.502 722.903 544.423 721.09 540.093 720.298C537.904 719.915 535.204 720.024 534.001 721.903C532.797 723.782 533.891 726.281 535.241 728.068C538.103 731.75 541.992 734.502 546.417 735.976C550.841 737.45 555.604 737.58 560.102 736.349" fill="#7000FF"/>
<path d="M542.92 726.573C543.381 726.591 543.839 726.652 544.288 726.755C544.744 726.846 545.273 726.938 545.893 727.12C546.513 727.302 547.225 727.43 547.973 727.722C548.804 727.999 549.62 728.322 550.417 728.689C551.34 729.091 552.241 729.541 553.116 730.038C557.162 732.336 560.587 735.585 563.093 739.505C563.631 740.351 564.118 741.228 564.553 742.131C564.957 742.916 565.311 743.727 565.611 744.557C565.877 745.23 566.102 745.918 566.285 746.618C566.453 747.138 566.587 747.668 566.687 748.205C566.81 748.652 566.883 749.111 566.906 749.573C566.796 749.573 566.45 747.64 565.264 744.685C564.942 743.881 564.577 743.096 564.17 742.332C563.721 741.451 563.227 740.592 562.692 739.76C561.434 737.862 559.972 736.107 558.333 734.525C556.656 732.982 554.822 731.618 552.861 730.458C552.004 729.956 551.121 729.499 550.216 729.09C549.444 728.699 548.646 728.364 547.827 728.087C544.872 726.992 542.92 726.682 542.92 726.573Z" fill="#263238"/>
</svg>
