<svg width="904" height="904" viewBox="0 0 904 904" fill="none" xmlns="http://www.w3.org/2000/svg">
<path d="M161.002 790.277C318.768 873.445 574.564 873.445 732.33 790.277C890.096 707.109 890.096 572.196 732.33 489.01C574.564 405.824 318.768 405.842 161.002 489.01C3.23634 572.178 3.21827 707.091 161.002 790.277Z" fill="#F5F5F5"/>
<path d="M295.626 645.998L300.363 640.357L156.862 557.497L147.135 563.102L198.103 592.536L149.16 620.795L97.7586 591.108L88.0496 596.73L234.932 681.526L236.468 679.681L237.246 680.115L293.583 647.662L294.035 647.915L294.849 646.92L296.06 646.233L295.626 645.998Z" fill="#E0E0E0"/>
<path d="M646.197 728.678C690.352 728.678 726.147 711.623 726.147 690.584C726.147 669.545 690.352 652.489 646.197 652.489C602.042 652.489 566.248 669.545 566.248 690.584C566.248 711.623 602.042 728.678 646.197 728.678Z" fill="#E0E0E0"/>
<path d="M404.685 807.2C448.84 807.2 484.634 790.144 484.634 769.105C484.634 748.066 448.84 731.01 404.685 731.01C360.53 731.01 324.735 748.066 324.735 769.105C324.735 790.144 360.53 807.2 404.685 807.2Z" fill="#E0E0E0"/>
<path d="M709.947 738.17C725.46 747.21 750.609 747.21 766.122 738.17C781.635 729.13 781.635 714.666 766.122 705.735C750.609 696.803 725.46 696.785 709.947 705.735C694.435 714.684 694.435 729.221 709.947 738.17Z" fill="#E0E0E0"/>
<path d="M162.431 754.388C184.368 754.388 202.152 744.124 202.152 731.463C202.152 718.801 184.368 708.537 162.431 708.537C140.493 708.537 122.709 718.801 122.709 731.463C122.709 744.124 140.493 754.388 162.431 754.388Z" fill="#E0E0E0"/>
<path d="M236.848 342.58L156.356 561.836C156.091 562.5 155.588 563.041 154.946 563.355C153.809 563.934 152.551 564.236 151.275 564.236C150 564.236 148.742 563.934 147.605 563.355C147.238 563.182 146.913 562.93 146.653 562.618C146.394 562.305 146.207 561.94 146.104 561.547C146.068 561.349 146.068 561.147 146.104 560.95C146.124 560.438 146.221 559.932 146.394 559.449L227.157 339C227.383 338.344 227.738 337.74 228.201 337.223C228.663 336.706 229.225 336.286 229.852 335.989C230.479 335.692 231.159 335.524 231.853 335.493C232.546 335.463 233.238 335.572 233.889 335.813C234.54 336.054 235.136 336.422 235.642 336.897C236.148 337.371 236.554 337.942 236.837 338.576C237.119 339.21 237.272 339.894 237.286 340.588C237.301 341.281 237.176 341.971 236.92 342.616L236.848 342.58Z" fill="#37474F"/>
<path d="M129.236 493.439L210.017 540.086" stroke="#37474F" stroke-width="6" stroke-miterlimit="10"/>
<path d="M187.978 459.521L268.777 506.168" stroke="#37474F" stroke-width="6" stroke-miterlimit="10"/>
<path d="M171.181 327.519L214.266 302.641C215.854 301.612 217.673 300.996 219.56 300.848C221.446 300.7 223.339 301.025 225.068 301.794C226.797 302.562 228.307 303.75 229.461 305.249C230.615 306.748 231.377 308.511 231.677 310.379L303.202 645.004C303.258 645.229 303.289 645.459 303.292 645.691C303.319 645.931 303.319 646.174 303.292 646.414C303.189 646.807 303.001 647.172 302.742 647.484C302.482 647.797 302.158 648.048 301.791 648.222C300.655 648.802 299.397 649.104 298.121 649.104C296.845 649.104 295.588 648.802 294.451 648.222C293.808 647.886 293.303 647.336 293.023 646.667C293.016 646.565 293.016 646.462 293.023 646.36L221.516 312.549C221.467 312.056 221.227 311.602 220.847 311.283C220.606 311.248 220.359 311.261 220.123 311.323C219.887 311.386 219.666 311.495 219.473 311.645L176.37 336.523" fill="#455A64"/>
<path d="M241.495 647.264L215.26 632.113C214.803 631.817 214.422 631.417 214.148 630.946C213.875 630.474 213.717 629.945 213.688 629.401V628.786C213.714 628.241 213.871 627.711 214.145 627.239C214.418 626.767 214.801 626.368 215.26 626.074L278.215 589.715C278.702 589.466 279.241 589.336 279.788 589.336C280.335 589.336 280.874 589.466 281.361 589.715L307.595 604.866C308.052 605.163 308.432 605.563 308.705 606.035C308.978 606.506 309.137 607.034 309.168 607.578V608.211C309.137 608.755 308.978 609.284 308.705 609.755C308.432 610.226 308.052 610.626 307.595 610.923L244.64 647.264C244.154 647.513 243.614 647.643 243.067 647.643C242.521 647.643 241.981 647.513 241.495 647.264Z" fill="#7000FF"/>
<path opacity="0.1" d="M214.158 627.268C213.868 627.736 213.706 628.272 213.688 628.822V629.437C213.717 629.981 213.875 630.511 214.148 630.982C214.422 631.453 214.803 631.853 215.26 632.149L241.495 647.264C241.978 647.523 242.519 647.653 243.068 647.644V643.937L214.158 627.268Z" fill="black"/>
<path opacity="0.15" d="M243.068 643.973V647.68C243.616 647.689 244.157 647.558 244.64 647.3L276.118 629.22L307.595 611.05C308.052 610.753 308.432 610.352 308.705 609.881C308.978 609.41 309.137 608.881 309.168 608.338V607.705C309.149 607.16 308.987 606.63 308.698 606.168L243.068 643.973Z" fill="black"/>
<path d="M230.122 594.091L203.87 578.94C203.419 578.639 203.044 578.237 202.774 577.766C202.504 577.296 202.347 576.769 202.315 576.228V575.595C202.347 575.053 202.504 574.527 202.774 574.056C203.044 573.585 203.419 573.184 203.87 572.883L266.843 536.542C267.326 536.293 267.863 536.163 268.407 536.163C268.951 536.163 269.487 536.293 269.971 536.542L296.223 551.693C296.677 551.991 297.054 552.392 297.325 552.863C297.595 553.334 297.75 553.863 297.778 554.405V555.056C297.754 555.599 297.601 556.129 297.33 556.601C297.06 557.073 296.68 557.473 296.223 557.768L233.232 594.091C232.751 594.337 232.218 594.465 231.677 594.465C231.137 594.465 230.604 594.337 230.122 594.091Z" fill="#7000FF"/>
<path opacity="0.1" d="M202.767 574.058C202.486 574.522 202.33 575.052 202.315 575.595V576.228C202.347 576.769 202.504 577.296 202.774 577.766C203.044 578.237 203.419 578.639 203.87 578.94L230.122 594.091C230.605 594.351 231.147 594.482 231.695 594.47V590.764L202.767 574.058Z" fill="black"/>
<path opacity="0.15" d="M231.695 590.764V594.47C232.238 594.48 232.773 594.349 233.25 594.091L264.745 576.011L296.223 557.822C296.68 557.528 297.06 557.128 297.33 556.656C297.601 556.184 297.754 555.654 297.778 555.11V554.496C297.765 553.952 297.609 553.422 297.326 552.959L231.695 590.764Z" fill="black"/>
<path d="M218.768 540.881L192.516 525.73C192.059 525.433 191.679 525.033 191.406 524.562C191.132 524.091 190.974 523.562 190.943 523.018V522.386C190.974 521.842 191.132 521.313 191.406 520.842C191.679 520.371 192.059 519.97 192.516 519.674L255.488 483.333C255.972 483.084 256.508 482.954 257.052 482.954C257.596 482.954 258.133 483.084 258.616 483.333L284.85 498.484C285.308 498.78 285.689 499.18 285.962 499.651C286.236 500.122 286.394 500.652 286.423 501.196V501.81C286.397 502.355 286.24 502.886 285.966 503.358C285.693 503.829 285.31 504.229 284.85 504.522L221.896 540.881C221.412 541.13 220.876 541.26 220.332 541.26C219.788 541.26 219.252 541.13 218.768 540.881Z" fill="#7000FF"/>
<path opacity="0.1" d="M191.395 520.849C191.109 521.312 190.947 521.841 190.925 522.385V523.018C190.956 523.562 191.114 524.091 191.388 524.562C191.661 525.033 192.041 525.433 192.498 525.73L205.624 533.306L218.75 540.881C219.226 541.142 219.762 541.273 220.305 541.261V537.536L191.395 520.849Z" fill="black"/>
<path opacity="0.15" d="M220.305 537.537V541.261C220.853 541.273 221.395 541.142 221.878 540.881L253.355 522.711L284.832 504.522C285.292 504.229 285.675 503.829 285.948 503.358C286.222 502.886 286.379 502.355 286.405 501.81V501.196C286.382 500.649 286.227 500.115 285.953 499.641L220.305 537.537Z" fill="black"/>
<path d="M207.36 487.672L181.125 472.521C180.669 472.224 180.289 471.824 180.015 471.352C179.742 470.881 179.584 470.352 179.552 469.809V469.176C179.584 468.632 179.742 468.103 180.015 467.632C180.289 467.161 180.669 466.761 181.125 466.464L244.08 430.123C244.564 429.874 245.1 429.744 245.644 429.744C246.188 429.744 246.724 429.874 247.208 430.123L273.46 445.274C273.92 445.568 274.302 445.967 274.576 446.439C274.849 446.911 275.006 447.441 275.033 447.986V448.601C275.003 449.145 274.845 449.674 274.572 450.146C274.299 450.617 273.918 451.017 273.46 451.313L210.487 487.672C210.002 487.917 209.467 488.044 208.923 488.044C208.38 488.044 207.845 487.917 207.36 487.672Z" fill="#7000FF"/>
<path opacity="0.15" d="M208.932 484.327V488.052C209.475 488.061 210.01 487.93 210.487 487.672L241.983 469.501L273.46 451.313C273.918 451.017 274.299 450.617 274.572 450.146C274.845 449.674 275.003 449.145 275.033 448.601V447.986C275.014 447.436 274.852 446.9 274.563 446.431L208.932 484.327Z" fill="black"/>
<path opacity="0.1" d="M180.004 467.639C179.731 468.107 179.576 468.635 179.552 469.176V469.809C179.584 470.353 179.742 470.881 180.015 471.352C180.289 471.824 180.669 472.224 181.125 472.521L207.36 487.672C207.842 487.933 208.384 488.063 208.932 488.051V484.327L180.004 467.639Z" fill="black"/>
<path d="M195.987 434.462L152.36 409.277C151.906 408.979 151.528 408.578 151.258 408.107C150.988 407.636 150.833 407.107 150.805 406.565V405.95C150.834 405.408 150.99 404.88 151.26 404.409C151.53 403.938 151.907 403.537 152.36 403.238L215.333 366.879C215.817 366.63 216.353 366.5 216.897 366.5C217.441 366.5 217.977 366.63 218.461 366.879L262.16 392.065C262.614 392.363 262.992 392.764 263.262 393.235C263.532 393.706 263.687 394.234 263.715 394.777V395.392C263.683 395.933 263.526 396.46 263.256 396.93C262.987 397.401 262.611 397.803 262.16 398.104L199.115 434.462C198.627 434.697 198.092 434.818 197.551 434.818C197.01 434.818 196.475 434.697 195.987 434.462Z" fill="#7000FF"/>
<path opacity="0.15" d="M197.542 431.118V434.824C198.089 434.841 198.631 434.717 199.115 434.462L230.592 416.274L262.16 398.104C262.611 397.802 262.986 397.401 263.256 396.93C263.526 396.46 263.683 395.933 263.715 395.392V394.759C263.7 394.216 263.544 393.686 263.263 393.222L197.542 431.118Z" fill="black"/>
<path opacity="0.1" d="M151.257 404.395C150.984 404.87 150.829 405.403 150.805 405.95V406.565C150.833 407.107 150.988 407.636 151.258 408.107C151.528 408.578 151.906 408.979 152.36 409.277L195.987 434.462C196.466 434.715 197.001 434.84 197.542 434.824V431.118L151.257 404.395Z" fill="black"/>
<path d="M178.178 376.498L97.632 595.501L97.4512 595.989C97.1415 596.522 96.6912 596.96 96.1494 597.255C95.0071 597.826 93.7474 598.123 92.4701 598.123C91.1929 598.123 89.9332 597.826 88.7909 597.255C88.4268 597.077 88.1048 596.824 87.8461 596.512C87.5873 596.2 87.3979 595.837 87.2902 595.447C87.2722 595.248 87.2722 595.048 87.2902 594.85C87.3121 594.331 87.4158 593.818 87.5976 593.331L168.415 372.918C168.641 372.262 168.996 371.658 169.459 371.141C169.922 370.624 170.483 370.204 171.11 369.907C171.737 369.61 172.417 369.442 173.111 369.411C173.804 369.381 174.496 369.49 175.147 369.731C175.798 369.972 176.394 370.34 176.9 370.815C177.406 371.289 177.812 371.86 178.095 372.494C178.377 373.128 178.53 373.812 178.544 374.506C178.559 375.199 178.434 375.889 178.178 376.534V376.498Z" fill="#37474F"/>
<path d="M176.37 336.523C175.127 337.368 174.145 338.544 173.535 339.918C172.925 341.292 172.711 342.808 172.917 344.297L244.46 678.904C244.531 679.169 244.568 679.443 244.568 679.718C244.586 679.91 244.586 680.104 244.568 680.296C244.463 680.688 244.274 681.052 244.015 681.364C243.756 681.676 243.433 681.928 243.068 682.104C241.931 682.684 240.673 682.986 239.397 682.986C238.121 682.986 236.864 682.684 235.727 682.104C235.098 681.776 234.595 681.248 234.299 680.603L234.208 680.17L162.72 346.485C162.074 342.844 162.531 339.093 164.032 335.714C165.533 332.334 168.011 329.481 171.145 327.519" fill="#455A64"/>
<path d="M196.331 674.492L129.977 673.588L129.399 727.828C129.399 732.746 132.544 737.682 138.981 741.497C151.854 749.109 172.863 749.344 185.899 742.003C192.48 738.297 195.77 733.379 195.77 728.425L196.331 674.492Z" fill="#37474F"/>
<path d="M139.849 660.155C126.813 667.496 126.687 679.627 139.56 687.275C152.432 694.923 173.441 695.122 186.568 687.781C199.694 680.441 199.73 668.309 186.857 660.661C173.984 653.013 152.884 652.815 139.849 660.155Z" fill="#455A64"/>
<path d="M193.456 674.275C193.442 675.157 193.283 676.031 192.986 676.861C191.973 679.971 189.261 682.863 185.031 685.25C178.205 688.748 170.603 690.458 162.937 690.222C155.279 690.309 147.724 688.442 140.988 684.798C137.497 683.031 134.766 680.056 133.304 676.427C132.987 675.533 132.828 674.591 132.834 673.643C132.834 669.593 135.871 665.687 141.241 662.704C148.039 659.163 155.638 657.444 163.299 657.714C170.972 657.601 178.544 659.469 185.284 663.138C190.636 666.284 193.456 670.226 193.456 674.275Z" fill="#263238"/>
<path d="M193.022 676.861C192.01 679.971 189.298 682.863 185.067 685.25C178.241 688.748 170.64 690.458 162.973 690.222C155.315 690.309 147.76 688.442 141.024 684.798C137.533 683.031 134.802 680.056 133.34 676.427C134.845 672.746 137.678 669.764 141.277 668.074C148.079 664.543 155.675 662.819 163.335 663.066C171.006 662.97 178.574 664.837 185.32 668.49C188.811 670.263 191.545 673.235 193.022 676.861Z" fill="#7000FF"/>
<path d="M177.311 694.796C178.757 693.965 179.932 694.67 179.914 696.333C179.846 697.246 179.563 698.129 179.089 698.911C178.614 699.694 177.962 700.353 177.184 700.835C175.72 701.667 174.562 700.962 174.581 699.298C174.646 698.385 174.927 697.5 175.402 696.718C175.877 695.935 176.531 695.276 177.311 694.796Z" fill="#263238"/>
<path d="M129.869 683.117C126.253 690.349 119.021 707.416 128.386 714.377C128.784 714.666 129.145 714.919 129.543 715.172V718.644C128.603 718.065 127.627 717.414 126.687 716.727C112.602 706.295 128.495 679.501 129.182 678.38C129.357 678.079 129.642 677.859 129.977 677.765L129.869 683.117Z" fill="#E0E0E0"/>
<path d="M178.54 698.503C178.142 699.334 167.891 718.933 151.022 722.874C149.122 723.334 147.174 723.565 145.219 723.562C139.619 723.457 134.167 721.75 129.507 718.644V715.172C136.468 720.018 143.483 721.681 150.335 720.09C165.902 716.474 175.864 697.345 175.937 697.165C176.024 696.996 176.144 696.846 176.29 696.724C176.436 696.602 176.604 696.51 176.785 696.452C176.967 696.395 177.158 696.375 177.347 696.391C177.536 696.408 177.721 696.462 177.889 696.55C178.064 696.631 178.221 696.746 178.35 696.89C178.479 697.034 178.577 697.202 178.638 697.385C178.699 697.568 178.722 697.762 178.705 697.954C178.688 698.146 178.632 698.333 178.54 698.503Z" fill="#E0E0E0"/>
<path d="M316.273 508.138L309.403 504.179C308.267 503.433 307.321 502.432 306.643 501.254C305.965 500.076 305.572 498.756 305.498 497.399V184.199C305.57 182.841 305.961 181.52 306.639 180.342C307.318 179.164 308.265 178.162 309.403 177.419L536.596 46.2487C537.81 45.6339 539.151 45.3136 540.511 45.3136C541.871 45.3136 543.212 45.6339 544.425 46.2487L551.277 50.2082C552.419 50.9495 553.369 51.95 554.051 53.1282C554.733 54.3064 555.127 55.629 555.201 56.9882V370.206C555.127 371.565 554.733 372.888 554.051 374.066C553.369 375.244 552.419 376.245 551.277 376.986L324.102 508.138C322.889 508.753 321.548 509.074 320.188 509.074C318.828 509.074 317.487 508.753 316.273 508.138Z" fill="#7000FF"/>
<path opacity="0.4" d="M555.146 56.3373C554.875 54.3124 553.23 53.5711 551.277 54.7101L324.084 185.881C322.932 186.611 321.981 187.618 321.318 188.81L306.637 180.33C307.294 179.134 308.246 178.126 309.403 177.401L536.578 46.2306C537.791 45.6159 539.132 45.2955 540.493 45.2955C541.853 45.2955 543.194 45.6159 544.407 46.2306L551.277 50.1901C552.324 50.8789 553.211 51.7839 553.878 52.8443C554.546 53.9047 554.978 55.0958 555.146 56.3373Z" fill="white"/>
<path opacity="0.1" d="M323.18 508.536C322.06 508.95 320.868 509.128 319.676 509.059C318.485 508.991 317.32 508.677 316.255 508.138L309.403 504.179C308.261 503.438 307.311 502.437 306.629 501.259C305.947 500.081 305.553 498.758 305.48 497.399V184.181C305.533 182.82 305.931 181.495 306.637 180.33L321.318 188.809C320.617 189.976 320.225 191.301 320.179 192.661V505.878C320.179 508.048 321.462 509.061 323.18 508.536Z" fill="black"/>
<path d="M572.937 302.876C572.647 302.744 572.326 302.691 572.009 302.723C571.691 302.755 571.388 302.87 571.129 303.057L561.908 309.168C561.317 309.533 560.606 309.65 559.93 309.495C559.253 309.339 558.664 308.923 558.292 308.336C557.739 307.568 557.135 306.837 556.484 306.149C555.944 305.581 555.562 304.882 555.375 304.121C555.187 303.36 555.202 302.563 555.418 301.809L569.882 292.589L559.034 286.333C558.812 286.207 558.575 286.11 558.328 286.044L551.422 284.507C550.664 284.372 549.883 284.474 549.185 284.797C548.487 285.12 547.904 285.65 547.517 286.315L541.044 298.664C540.154 300.105 538.753 301.157 537.121 301.611L536.723 301.737C537.001 300.798 537.195 299.836 537.301 298.862L526.453 292.571C526.11 292.388 525.717 292.321 525.333 292.38C524.949 292.439 524.593 292.62 524.32 292.896L513.996 301.014C513.374 301.56 512.876 302.233 512.536 302.988C512.196 303.742 512.022 304.561 512.026 305.389L512.64 315.225C512.638 316.943 512.073 318.613 511.031 319.98C509.35 322.005 507.741 324.12 506.24 326.326C505.746 326.974 505.112 327.502 504.386 327.871C503.66 328.241 502.86 328.442 502.045 328.459L495.392 328.134C494.603 328.136 493.831 328.354 493.158 328.766C492.485 329.177 491.938 329.765 491.577 330.466L485.34 344.46C485.071 345.054 485.032 345.725 485.229 346.346C485.425 346.967 485.845 347.493 486.406 347.823L493.765 352.072C494.008 352.674 494.065 353.335 493.928 353.97C493.43 356.178 493.049 358.411 492.788 360.66C492.518 362.365 491.737 363.947 490.547 365.198L481.398 373.605C480.824 374.195 480.389 374.905 480.123 375.683C479.857 376.462 479.768 377.29 479.861 378.107L481.579 388.087C481.605 388.362 481.693 388.627 481.838 388.862C481.982 389.097 482.178 389.296 482.411 389.443L493.259 395.735L493.403 383.242C493.994 382.877 494.705 382.759 495.382 382.915C496.059 383.071 496.647 383.487 497.019 384.073C497.567 384.847 498.171 385.578 498.827 386.261C499.366 386.83 499.749 387.528 499.939 388.288C500.129 389.049 500.12 389.845 499.912 390.6L495.392 403.184C495.187 403.683 495.165 404.238 495.33 404.751C495.496 405.264 495.838 405.702 496.296 405.986L507.144 412.278L510.109 404.142L514.322 393.692C515.205 392.252 516.6 391.199 518.227 390.745C519.672 390.365 521.091 389.894 522.476 389.335C522.785 389.191 523.122 389.116 523.463 389.116C523.804 389.115 524.141 389.189 524.45 389.332C524.76 389.475 525.035 389.683 525.256 389.943C525.477 390.202 525.639 390.507 525.73 390.835L528.063 398.556C528.195 399.056 528.511 399.489 528.948 399.767L539.887 406.059L537.97 393.981L541.315 391.342C541.937 390.796 542.434 390.123 542.771 389.368C543.108 388.613 543.277 387.793 543.268 386.966L542.653 377.131C542.652 375.412 543.217 373.74 544.262 372.376C545.962 370.351 548.511 369.266 550.012 367.078C550.861 365.831 551.82 363.824 553.266 363.896L559.901 364.222C560.69 364.222 561.464 364.004 562.137 363.593C562.81 363.181 563.357 362.592 563.716 361.889L569.972 347.877C570.115 347.555 570.193 347.207 570.2 346.854C570.207 346.502 570.145 346.151 570.015 345.823C569.885 345.495 569.692 345.195 569.445 344.943C569.199 344.69 568.905 344.489 568.58 344.352L563.156 342.056C562.499 341.735 561.966 341.207 561.64 340.554C561.313 339.9 561.21 339.157 561.348 338.44C561.852 336.232 562.238 333.999 562.505 331.75C562.76 330.044 563.537 328.459 564.729 327.212L573.895 318.805C574.725 317.954 575.252 316.856 575.396 315.677L583.713 309.204L572.937 302.876ZM531.353 367.44C520.144 376.227 509.44 373.84 507.415 362.016C505.39 350.192 514.539 335.312 525.73 326.507C536.922 317.702 545.926 318.371 547.951 330.123C549.976 341.875 542.581 358.635 531.389 367.44H531.353Z" fill="#263238"/>
<path d="M490.51 365.216L481.47 373.533C480.764 374.248 480.28 375.152 480.078 376.136L493.512 383.911V383.188C494.103 382.823 494.814 382.705 495.49 382.861C496.167 383.017 496.756 383.433 497.128 384.019L510.091 376.534L490.51 365.216Z" fill="#455A64"/>
<path d="M513.58 340.012C514.608 338.424 515.718 336.891 516.907 335.42L503.998 327.971C503.427 328.22 502.813 328.355 502.19 328.369L495.537 328.044C494.53 328.027 493.551 328.38 492.788 329.038L512.676 340.501L513.58 340.012Z" fill="#455A64"/>
<path d="M583.785 309.168C583.492 309.041 583.169 308.994 582.852 309.032C582.534 309.07 582.232 309.192 581.977 309.385L572.829 315.406C572.236 315.766 571.527 315.881 570.851 315.725C570.176 315.57 569.588 315.157 569.213 314.574C568.669 313.798 568.065 313.066 567.405 312.386C566.863 311.816 566.48 311.114 566.293 310.349C566.106 309.585 566.121 308.785 566.338 308.029L567.206 305.697L571.129 303.111C571.397 302.907 571.717 302.782 572.053 302.75C572.388 302.718 572.726 302.781 573.028 302.93L583.785 309.168Z" fill="#455A64"/>
<path d="M556.756 306.456C556.647 306.348 556.557 306.203 556.448 306.076C555.908 305.509 555.526 304.81 555.338 304.048C555.151 303.287 555.166 302.491 555.381 301.737L569.845 292.516L558.997 286.261C558.775 286.135 558.539 286.038 558.292 285.971L551.386 284.435C550.628 284.3 549.847 284.401 549.149 284.725C548.451 285.048 547.868 285.578 547.48 286.243L541.008 298.591C540.632 299.241 540.127 299.806 539.525 300.255L554.17 308.716L556.756 306.456Z" fill="#455A64"/>
<path d="M512.369 303.636L525.803 311.392L536.868 301.267C537.074 300.453 537.225 299.625 537.32 298.79L526.472 292.498C526.119 292.32 525.717 292.263 525.329 292.335C524.94 292.407 524.586 292.604 524.32 292.896L513.996 301.014C513.212 301.712 512.646 302.623 512.369 303.636Z" fill="#455A64"/>
<path d="M586.371 320.522L584.653 310.542C584.645 310.23 584.548 309.926 584.373 309.667C584.198 309.407 583.954 309.203 583.667 309.078C583.381 308.953 583.065 308.912 582.756 308.96C582.447 309.008 582.158 309.143 581.923 309.349L572.774 315.369C572.183 315.734 571.472 315.852 570.796 315.696C570.119 315.54 569.53 315.124 569.158 314.538C568.615 313.767 568.011 313.041 567.35 312.368C566.812 311.796 566.429 311.094 566.239 310.331C566.049 309.568 566.058 308.769 566.266 308.011L570.93 295.355C571.059 295.038 571.117 294.697 571.098 294.356C571.08 294.014 570.986 293.681 570.824 293.38C570.661 293.08 570.434 292.819 570.159 292.616C569.883 292.413 569.566 292.274 569.231 292.209L562.342 290.672C561.584 290.535 560.803 290.635 560.104 290.959C559.405 291.282 558.823 291.814 558.437 292.48L551.946 304.829C551.063 306.269 549.668 307.322 548.041 307.776C546.596 308.156 545.177 308.627 543.792 309.186C543.483 309.333 543.146 309.41 542.804 309.412C542.462 309.414 542.124 309.341 541.813 309.198C541.503 309.055 541.228 308.845 541.007 308.584C540.787 308.322 540.627 308.016 540.538 307.685L538.205 299.965C538.129 299.668 537.978 299.394 537.766 299.171C537.555 298.948 537.29 298.783 536.997 298.69C536.704 298.598 536.392 298.582 536.091 298.644C535.79 298.706 535.51 298.843 535.276 299.043L524.953 307.161C524.331 307.706 523.834 308.38 523.497 309.135C523.16 309.89 522.991 310.71 523 311.537L523.615 321.372C523.612 323.09 523.047 324.76 522.006 326.127C520.306 328.152 518.715 330.267 517.196 332.473C516.708 333.127 516.076 333.659 515.348 334.029C514.621 334.399 513.818 334.597 513.002 334.607L506.367 334.281C505.586 334.298 504.825 334.527 504.166 334.944C503.506 335.362 502.973 335.951 502.624 336.65L496.278 350.752C496.12 351.079 496.031 351.435 496.016 351.798C496.002 352.16 496.061 352.522 496.192 352.861C496.322 353.2 496.521 353.509 496.775 353.768C497.029 354.027 497.334 354.231 497.67 354.368L503.094 356.664C503.751 356.985 504.284 357.512 504.61 358.166C504.937 358.82 505.04 359.563 504.902 360.28C504.398 362.488 504.012 364.721 503.745 366.97C503.493 368.677 502.716 370.263 501.521 371.508L492.355 379.915C491.781 380.505 491.345 381.214 491.079 381.993C490.814 382.772 490.724 383.6 490.818 384.417L492.626 394.415C492.637 394.726 492.737 395.028 492.913 395.284C493.088 395.541 493.334 395.743 493.619 395.866C493.905 395.989 494.22 396.028 494.527 395.979C494.835 395.931 495.122 395.796 495.356 395.59L504.504 389.57C505.096 389.21 505.806 389.095 506.481 389.25C507.157 389.406 507.745 389.819 508.12 390.401C508.674 391.17 509.278 391.901 509.928 392.589C510.47 393.16 510.853 393.862 511.04 394.626C511.227 395.39 511.212 396.19 510.995 396.946L506.33 409.602C506.201 409.919 506.144 410.26 506.162 410.602C506.181 410.943 506.274 411.276 506.437 411.577C506.599 411.878 506.827 412.139 507.102 412.341C507.377 412.544 507.694 412.683 508.03 412.748L514.936 414.285C515.694 414.42 516.475 414.318 517.173 413.995C517.872 413.672 518.454 413.142 518.842 412.477L525.314 400.129C526.208 398.691 527.608 397.64 529.238 397.181C530.685 396.809 532.104 396.338 533.487 395.771C533.796 395.628 534.133 395.553 534.473 395.552C534.814 395.552 535.151 395.626 535.461 395.768C535.771 395.911 536.046 396.12 536.267 396.379C536.488 396.639 536.649 396.943 536.741 397.272L539.073 404.992C539.151 405.286 539.302 405.557 539.512 405.777C539.722 405.998 539.985 406.161 540.275 406.253C540.566 406.345 540.874 406.362 541.173 406.303C541.472 406.244 541.751 406.11 541.984 405.914L552.308 397.796C552.929 397.25 553.427 396.576 553.767 395.822C554.106 395.067 554.281 394.248 554.279 393.421L553.664 383.585C553.657 381.866 554.223 380.192 555.273 378.83C556.954 376.805 558.563 374.69 560.064 372.484C560.558 371.836 561.192 371.308 561.918 370.939C562.644 370.57 563.444 370.369 564.259 370.351L570.912 370.676C571.701 370.674 572.474 370.456 573.146 370.044C573.819 369.633 574.366 369.045 574.727 368.344L580.965 354.35C581.122 354.023 581.211 353.667 581.226 353.304C581.241 352.942 581.181 352.58 581.051 352.241C580.92 351.902 580.722 351.593 580.468 351.334C580.213 351.075 579.909 350.871 579.572 350.734L574.148 348.438C573.488 348.122 572.951 347.595 572.624 346.94C572.296 346.285 572.197 345.54 572.34 344.822C572.838 342.614 573.219 340.381 573.48 338.132C573.745 336.431 574.528 334.853 575.721 333.612L584.87 325.187C585.46 324.576 585.903 323.838 586.163 323.029C586.423 322.22 586.494 321.363 586.371 320.522ZM542.255 373.714C531.064 382.519 520.342 380.114 518.317 368.29C516.292 356.465 523.741 339.85 534.915 331.045C546.088 322.24 556.828 324.645 558.853 336.469C560.878 348.293 553.447 364.909 542.255 373.714Z" fill="#37474F"/>
<path d="M521.246 206.239L510.543 200.073C510.286 199.94 510.001 199.871 509.711 199.871C509.422 199.871 509.137 199.94 508.88 200.073L489.534 208.788C489.227 208.935 488.89 209.012 488.55 209.014C488.209 209.016 487.872 208.943 487.563 208.799C487.254 208.656 486.98 208.446 486.761 208.185C486.543 207.923 486.384 207.617 486.298 207.287C485.257 203.931 483.812 200.713 481.995 197.705C481.599 196.996 481.368 196.207 481.318 195.396C481.268 194.586 481.4 193.774 481.705 193.022L494.596 167.023C494.911 166.36 494.967 165.603 494.753 164.901C494.539 164.198 494.071 163.601 493.439 163.226L479.464 155.163C478.828 154.799 478.078 154.688 477.365 154.852C476.651 155.016 476.025 155.443 475.612 156.048L459.521 180.258C459.022 180.901 458.384 181.424 457.654 181.787C456.925 182.15 456.123 182.344 455.309 182.355C453.437 182.306 451.564 182.39 449.704 182.608V164.944L438.964 158.742C438.675 158.608 438.356 158.552 438.038 158.58C437.721 158.609 437.417 158.721 437.156 158.905L415.46 171.453C414.764 171.909 414.173 172.508 413.724 173.209C413.276 173.91 412.98 174.698 412.857 175.521L410.687 199.694C410.441 201.405 409.649 202.99 408.427 204.214C404.12 208.2 400.085 212.47 396.35 216.996C395.823 217.577 395.144 217.998 394.39 218.212C393.635 218.426 392.836 218.425 392.083 218.208L378.125 213.326C377.404 213.101 376.629 213.124 375.921 213.389C375.214 213.654 374.616 214.147 374.22 214.79L358.237 242.453C357.882 243.121 357.758 243.888 357.885 244.634C358.013 245.38 358.385 246.063 358.942 246.575L370.134 256.23C370.704 256.77 371.109 257.462 371.301 258.224C371.493 258.986 371.465 259.787 371.219 260.533C369.161 266.022 367.481 271.646 366.192 277.365C365.745 279.034 364.768 280.512 363.408 281.578L343.52 295.554C342.867 296.07 342.331 296.719 341.948 297.457C341.564 298.196 341.342 299.008 341.296 299.839V324.934C341.275 325.246 341.336 325.559 341.472 325.841C341.608 326.123 341.816 326.365 342.074 326.543L352.777 332.726L368.669 325.187C369.266 326.427 369.93 327.634 370.658 328.803C371.054 329.512 371.285 330.301 371.335 331.111C371.385 331.922 371.253 332.733 370.947 333.486L358.056 359.485C357.737 360.142 357.677 360.896 357.888 361.597C358.099 362.297 358.566 362.892 359.195 363.263L373.189 371.345C373.827 371.707 374.578 371.815 375.292 371.648C376.006 371.48 376.63 371.049 377.04 370.441L393.113 346.286C393.606 345.639 394.24 345.114 394.967 344.75C395.694 344.386 396.495 344.194 397.308 344.189C400.827 344.264 404.342 343.912 407.776 343.14C408.103 343.048 408.446 343.03 408.781 343.087C409.115 343.145 409.433 343.276 409.71 343.472C409.987 343.668 410.217 343.923 410.383 344.219C410.549 344.515 410.647 344.845 410.669 345.183L412.803 366.283C412.809 366.579 412.888 366.869 413.033 367.128C413.178 367.386 413.385 367.605 413.634 367.765L424.32 373.912L437.156 355.073C437.85 354.616 438.438 354.017 438.884 353.315C439.329 352.614 439.622 351.827 439.742 351.005L441.911 326.832C442.047 326.049 442.372 325.31 442.857 324.68C443.342 324.05 443.973 323.548 444.696 323.216C451.073 320.46 456.819 316.43 461.582 311.374C462.134 310.813 462.826 310.41 463.585 310.207C464.345 310.003 465.146 310.007 465.904 310.217L474.473 313.236C475.195 313.467 475.973 313.45 476.684 313.187C477.395 312.925 477.998 312.433 478.397 311.79L494.361 284.127C494.719 283.461 494.846 282.695 494.722 281.949C494.597 281.203 494.229 280.519 493.674 280.005L486.352 273.713C485.787 273.16 485.378 272.467 485.169 271.705C484.959 270.942 484.956 270.138 485.159 269.374C486.746 262.814 487.415 256.067 487.148 249.323C487.163 248.501 487.357 247.692 487.716 246.952C488.075 246.212 488.59 245.559 489.227 245.038L509.115 231.062C509.763 230.547 510.295 229.901 510.675 229.165C511.055 228.43 511.275 227.622 511.32 226.796L520.812 215.423L521.246 206.239ZM426.344 305.679C406.059 317.376 393.457 309.078 393.457 285.664C393.457 262.25 410.217 233.557 430.485 221.86C450.753 210.162 463.029 218.66 463.029 242.073C463.029 265.487 446.576 293.999 426.344 305.715V305.679Z" fill="#263238"/>
<path d="M490.312 175.647L494.578 167.059C494.893 166.396 494.949 165.639 494.735 164.937C494.521 164.235 494.052 163.638 493.421 163.262L479.445 155.199C478.81 154.835 478.06 154.724 477.347 154.888C476.633 155.052 476.007 155.48 475.594 156.085L459.521 180.258C459.226 180.658 458.865 181.007 458.455 181.288L476.444 191.666L490.312 175.647Z" fill="#455A64"/>
<path d="M364.963 279.951C364.541 280.572 364.022 281.121 363.426 281.578L343.538 295.554C343.009 295.968 342.561 296.477 342.218 297.054L354.35 304.051L380.692 289.063L364.963 279.951Z" fill="#455A64"/>
<path d="M377.022 213.163C376.46 213.184 375.912 213.344 375.426 213.628C374.94 213.912 374.532 214.311 374.238 214.791L358.255 242.453C357.92 243.072 357.793 243.782 357.894 244.478L371.671 252.433L393.547 222.836L377.022 213.163Z" fill="#455A64"/>
<path d="M413.309 174.074L430.34 183.91L449.704 172.736V164.944L438.964 158.742C438.675 158.608 438.356 158.552 438.038 158.58C437.721 158.609 437.417 158.721 437.156 158.905L415.46 171.453C414.498 172.093 413.749 173.006 413.309 174.074Z" fill="#455A64"/>
<path d="M522.006 232.961V207.92C522.055 207.613 522.015 207.299 521.889 207.014C521.763 206.73 521.558 206.488 521.298 206.318C521.038 206.148 520.734 206.057 520.424 206.055C520.113 206.054 519.808 206.143 519.547 206.311L500.201 215.044C499.895 215.191 499.56 215.268 499.22 215.27C498.881 215.272 498.545 215.198 498.237 215.055C497.929 214.911 497.657 214.701 497.44 214.44C497.223 214.178 497.067 213.872 496.983 213.543C495.928 210.189 494.477 206.972 492.662 203.961C492.266 203.251 492.035 202.463 491.985 201.652C491.935 200.842 492.067 200.03 492.373 199.278L505.264 173.279C505.58 172.618 505.638 171.862 505.428 171.16C505.217 170.458 504.753 169.86 504.125 169.482L490.131 161.4C489.492 161.042 488.742 160.937 488.03 161.104C487.317 161.271 486.692 161.699 486.28 162.304L470.207 186.477C469.712 187.124 469.074 187.649 468.343 188.009C467.613 188.37 466.809 188.557 465.994 188.556C462.481 188.496 458.972 188.854 455.544 189.623C455.216 189.715 454.872 189.733 454.536 189.676C454.201 189.619 453.882 189.487 453.604 189.292C453.325 189.096 453.093 188.841 452.926 188.545C452.758 188.249 452.658 187.92 452.633 187.58L450.517 166.336C450.527 166.028 450.449 165.723 450.292 165.457C450.135 165.192 449.905 164.976 449.631 164.836C449.356 164.696 449.047 164.637 448.74 164.665C448.433 164.694 448.14 164.809 447.896 164.998L426.2 177.546C425.504 177.999 424.913 178.594 424.464 179.292C424.015 179.99 423.72 180.775 423.596 181.596L421.427 205.787C421.177 207.497 420.385 209.081 419.167 210.307C414.86 214.293 410.825 218.563 407.089 223.089C406.563 223.67 405.883 224.09 405.128 224.301C404.373 224.513 403.574 224.506 402.822 224.282L388.865 219.419C388.145 219.193 387.371 219.212 386.665 219.474C385.958 219.736 385.358 220.225 384.959 220.865L368.977 248.546C368.621 249.214 368.497 249.981 368.625 250.727C368.753 251.473 369.124 252.156 369.682 252.668L380.873 262.305C381.444 262.849 381.848 263.544 382.04 264.309C382.232 265.073 382.204 265.877 381.958 266.626C379.9 272.115 378.221 277.739 376.932 283.458C376.485 285.127 375.508 286.605 374.148 287.671L354.26 301.647C353.607 302.163 353.071 302.812 352.687 303.55C352.304 304.289 352.082 305.101 352.036 305.932V331.027C351.995 331.333 352.043 331.644 352.173 331.924C352.303 332.204 352.51 332.441 352.77 332.608C353.029 332.775 353.331 332.864 353.64 332.866C353.948 332.868 354.251 332.782 354.513 332.618L373.858 323.903C374.163 323.756 374.497 323.678 374.836 323.675C375.174 323.672 375.509 323.744 375.817 323.886C376.124 324.027 376.397 324.235 376.615 324.495C376.832 324.754 376.99 325.058 377.076 325.386C378.12 328.75 379.571 331.974 381.398 334.986C381.793 335.695 382.025 336.484 382.075 337.295C382.125 338.105 381.992 338.917 381.687 339.669L368.832 365.74C368.513 366.398 368.452 367.152 368.663 367.852C368.874 368.552 369.341 369.147 369.971 369.519L383.965 377.601C384.603 377.963 385.354 378.071 386.068 377.904C386.782 377.736 387.406 377.305 387.816 376.697L403.853 352.56C404.351 351.919 404.986 351.398 405.712 351.035C406.438 350.672 407.236 350.476 408.048 350.463C411.568 350.541 415.084 350.183 418.516 349.396C418.843 349.307 419.186 349.292 419.521 349.351C419.855 349.409 420.172 349.541 420.45 349.736C420.728 349.931 420.959 350.184 421.128 350.479C421.297 350.773 421.399 351.101 421.427 351.439L423.542 372.557C423.529 372.866 423.605 373.174 423.76 373.442C423.916 373.71 424.145 373.928 424.42 374.071C424.696 374.213 425.006 374.274 425.315 374.246C425.624 374.218 425.918 374.102 426.164 373.913L447.86 361.257C448.556 360.807 449.148 360.213 449.594 359.514C450.04 358.815 450.331 358.028 450.445 357.207L452.633 333.016C452.882 331.311 453.675 329.732 454.893 328.514C459.194 324.528 463.223 320.257 466.952 315.731C467.477 315.147 468.156 314.723 468.911 314.509C469.666 314.295 470.466 314.298 471.219 314.52L485.177 319.383C485.898 319.614 486.676 319.597 487.387 319.335C488.098 319.073 488.701 318.581 489.1 317.937L505.083 290.256C505.437 289.591 505.56 288.827 505.432 288.084C505.305 287.341 504.934 286.661 504.378 286.152L493.222 276.624C492.652 276.084 492.247 275.392 492.055 274.63C491.863 273.868 491.891 273.067 492.138 272.321C494.181 266.821 495.861 261.192 497.164 255.47C497.616 253.804 498.592 252.327 499.948 251.258L519.836 237.282C520.484 236.758 521.013 236.101 521.388 235.356C521.762 234.611 521.972 233.794 522.006 232.961ZM437.03 311.88C416.744 323.578 400.309 314.086 400.309 290.672C400.309 267.259 416.744 238.783 437.03 227.085C457.316 215.387 473.696 224.861 473.696 248.275C473.696 271.688 457.297 300.128 437.03 311.88Z" fill="#37474F"/>
<path d="M521.246 206.239C520.983 206.096 520.687 206.022 520.388 206.022C520.088 206.022 519.793 206.096 519.529 206.239L500.183 214.953C499.878 215.1 499.544 215.178 499.206 215.181C498.867 215.184 498.532 215.112 498.225 214.971C497.917 214.829 497.645 214.621 497.427 214.362C497.209 214.102 497.051 213.798 496.965 213.471C496.244 211.128 495.319 208.853 494.199 206.673L508.844 200.073C509.103 199.937 509.391 199.866 509.684 199.866C509.977 199.866 510.266 199.937 510.525 200.073L521.246 206.239Z" fill="#455A64"/>
<path d="M673.552 677.403V675.342C672.739 677.765 668.978 688.143 663.265 693.422C658.727 697.563 652.543 702.354 650.952 706.964C649.361 711.575 659.576 713.365 663.807 712.623C668.743 711.755 675.107 709.007 678.579 704.686C681.019 701.703 682.574 698.141 684.31 695.791C686.046 693.44 690.077 690.801 691.018 688.071C691.542 686.57 690.927 683.298 690.186 680.513C689.445 677.729 688.812 675.089 687.926 675.415V676.988C685.868 678.608 683.312 679.464 680.694 679.41C678.633 679.428 673.534 679.013 673.552 677.403Z" fill="#263238"/>
<path d="M659.161 697.002C660.571 695.737 661.981 694.507 663.265 693.386C667.261 689.77 670.298 683.587 672.034 679.374C673.03 676.973 673.546 674.399 673.552 671.799V663.536H687.926V676.879V677.241C687.239 680.224 680.694 688.179 676.897 693.368C674.366 696.839 669.665 701.269 663.88 702.028C658.401 702.806 655.635 701.106 659.161 697.002Z" fill="#FFA8A7"/>
<path d="M617.432 663.229V661.167C616.618 663.572 612.858 673.968 607.144 679.247C602.606 683.388 596.423 688.161 594.85 692.771C593.277 697.382 603.456 699.19 607.705 698.448C612.623 697.563 619.005 694.832 622.458 690.511C624.899 687.51 626.454 683.966 628.208 681.598C629.961 679.229 633.957 676.626 634.897 673.896C635.422 672.395 634.807 669.105 634.084 666.338C633.36 663.572 632.691 661.005 631.824 661.24V662.813C629.762 664.425 627.209 665.28 624.592 665.235C622.512 665.235 617.414 664.82 617.432 663.229Z" fill="#263238"/>
<path d="M603.04 682.809C604.451 681.562 605.861 680.332 607.144 679.193C611.14 675.577 614.178 669.394 615.913 665.181C616.92 662.783 617.437 660.207 617.432 657.606V649.416H631.896V662.759V663.12C631.191 666.103 624.664 674.059 620.849 679.248C618.336 682.719 613.617 687.13 607.85 687.908C602.082 688.685 599.515 686.913 603.04 682.809Z" fill="#FFA8A7"/>
<path d="M685.069 453.808C696.225 478.18 684.672 563.988 684.672 563.988C684.997 567.947 689.517 575.722 691.216 593.114C693.205 613.671 688.089 665.29 688.089 665.29C685.905 666.551 683.448 667.262 680.928 667.363C678.408 667.463 675.902 666.951 673.625 665.868C673.625 665.868 659.902 588.124 657.353 567.694C655.093 549.849 650.772 510.634 650.772 510.634L638.513 567.604C640.305 573.347 641.605 579.232 642.4 585.195C643.558 597.219 631.914 653.194 631.914 653.194C631.914 653.194 626.942 655.002 617.45 653.628C617.45 653.628 613.328 579.356 612.243 564.874C610.435 540.538 616.872 464.656 621.283 450.246L685.069 453.808Z" fill="#37474F"/>
<path d="M650.681 510.633L647.065 487.997C647.065 487.997 631.751 484.833 624.809 478.306C629.597 483.921 635.859 488.085 642.889 490.33L646.939 507.759L639.869 560.48L650.681 510.633Z" fill="#263238"/>
<path d="M627.105 438.458C635.548 410.362 646.306 368.525 642.256 368.525C638.206 368.525 631.95 368.145 627.376 372.737C618.336 381.777 616.727 398.556 614.828 408.138C612.93 417.72 611.592 425.26 608.573 439.453C606.295 450.301 603.492 463.264 599.424 471.581C598.664 473.068 597.374 474.217 595.808 474.799C591.722 476.462 589.842 478.578 586.569 481C584.002 482.808 582.049 483.134 582.212 483.911C582.492 484.778 583.089 485.507 583.883 485.953C584.678 486.399 585.611 486.529 586.497 486.316C588.472 485.911 590.391 485.268 592.21 484.399C590.361 487.508 588.023 490.298 585.286 492.662C579.03 498.086 578.054 501.937 588.522 503.835C595.049 505.029 600.961 501.901 608.41 488.359C611.237 483.424 613.708 478.295 615.805 473.009C620.795 459.232 624.556 446.956 627.105 438.458Z" fill="#FFA8A7"/>
<path d="M665.344 369.194C679.645 370.17 680.64 377.077 684.22 384.634C686.846 390.45 687.093 397.062 684.907 403.058L674.926 431.877C674.926 431.877 679.609 443.159 685.015 453.808C660.01 467.766 628.786 460.443 621.265 450.192C620.958 448.041 622.874 431.154 624.067 420.125C619.674 409.06 618.499 402.045 620.361 394.813C623.814 381.253 637.212 368.055 643.124 368.543L665.344 369.194Z" fill="#7000FF"/>
<path d="M651.657 357.333H657.208C664.955 357.328 672.384 354.249 677.862 348.77C683.341 343.292 686.42 335.863 686.425 328.116C686.425 320.322 683.33 312.847 677.821 307.335C672.312 301.822 664.839 298.723 657.045 298.718H651.802C644.008 298.723 636.536 301.822 631.026 307.335C625.517 312.847 622.422 320.322 622.422 328.116C622.427 335.866 625.509 343.298 630.991 348.777C636.473 354.255 643.907 357.333 651.657 357.333Z" fill="#263238"/>
<path d="M702.083 372.737C697.503 372.737 693.111 370.918 689.873 367.68C686.635 364.442 684.816 360.05 684.816 355.471V318.497C689.395 318.497 693.787 320.316 697.025 323.555C700.263 326.793 702.083 331.184 702.083 335.764V372.737Z" fill="#263238"/>
<path d="M687.98 311.934L683.641 318.895C684.083 319.202 684.583 319.416 685.111 319.525C685.638 319.633 686.182 319.633 686.709 319.525C687.237 319.416 687.737 319.202 688.179 318.895C688.621 318.588 688.996 318.194 689.282 317.738C689.854 316.789 690.038 315.656 689.795 314.575C689.553 313.494 688.903 312.548 687.98 311.934Z" fill="#263238"/>
<path d="M632.945 311.663C629.564 313.67 625.387 322.168 625.713 339.994C626.074 355.091 630.956 358.816 633.415 359.882C635.874 360.949 640.647 360.298 645.239 359.539V368.579C645.239 368.579 638.857 375.974 639.255 380.132C639.652 384.29 648.457 385.285 654.424 381.217C658.29 378.433 661.606 374.958 664.205 370.965V349.089C664.689 349.684 665.287 350.177 665.964 350.538C666.641 350.9 667.382 351.124 668.146 351.196C668.91 351.268 669.681 351.188 670.413 350.96C671.146 350.731 671.826 350.36 672.413 349.866C677.494 346.485 677.693 338.132 674.728 335.131C671.762 332.13 665.398 333.07 664.205 337.228C664.205 337.228 656.846 337.481 647.065 332.112C643.273 330.048 640.02 327.123 637.567 323.571C635.114 320.019 633.531 315.94 632.945 311.663Z" fill="#FFA8A7"/>
<path d="M644.353 336.288C644.336 336.542 644.369 336.797 644.451 337.039C644.532 337.28 644.661 337.503 644.829 337.694C644.997 337.886 645.201 338.042 645.43 338.155C645.658 338.267 645.907 338.333 646.161 338.349C646.663 338.36 647.15 338.179 647.523 337.843C647.896 337.507 648.127 337.041 648.168 336.541C648.192 336.038 648.015 335.545 647.676 335.172C647.337 334.799 646.863 334.576 646.36 334.552C645.857 334.528 645.364 334.705 644.991 335.044C644.618 335.384 644.395 335.857 644.371 336.36L644.353 336.288Z" fill="#263238"/>
<path d="M642.147 348.944L637.736 350.354C637.814 350.651 637.952 350.928 638.141 351.169C638.331 351.41 638.567 351.611 638.836 351.758C639.104 351.905 639.4 351.996 639.706 352.025C640.011 352.054 640.319 352.021 640.611 351.927C641.202 351.725 641.693 351.301 641.979 350.745C642.266 350.189 642.326 349.544 642.147 348.944Z" fill="#F28F8F"/>
<path d="M628.768 330.358L632.619 327.7C632.458 327.44 632.246 327.215 631.995 327.041C631.744 326.866 631.46 326.744 631.16 326.683C630.86 326.622 630.551 326.623 630.252 326.686C629.952 326.749 629.669 326.873 629.419 327.049C628.906 327.411 628.552 327.957 628.43 328.573C628.309 329.189 628.43 329.828 628.768 330.358Z" fill="#263238"/>
<path d="M629.654 334.824C629.63 335.327 629.807 335.819 630.146 336.192C630.485 336.565 630.959 336.788 631.462 336.812C631.966 336.836 632.458 336.659 632.831 336.32C633.204 335.981 633.427 335.508 633.451 335.004C633.47 334.75 633.439 334.494 633.358 334.251C633.278 334.009 633.149 333.785 632.981 333.593C632.812 333.401 632.607 333.245 632.377 333.133C632.148 333.022 631.898 332.957 631.643 332.943C631.131 332.933 630.636 333.125 630.264 333.477C629.892 333.828 629.673 334.312 629.654 334.824Z" fill="#263238"/>
<path d="M638.929 333.739L638.64 345.165L632.619 343.303L638.929 333.739Z" fill="#F28F8F"/>
<path d="M645.311 359.557C650.157 358.906 660.155 356.049 661.71 352.09C661.095 354.096 659.868 355.859 658.202 357.134C655.219 359.702 645.311 362.558 645.311 362.558V359.557Z" fill="#F28F8F"/>
<path opacity="0.1" d="M658.998 456.52C660.957 456.071 662.807 455.235 664.438 454.061C666.07 452.888 667.451 451.4 668.5 449.686C669.549 447.971 670.245 446.065 670.548 444.078C670.85 442.091 670.753 440.064 670.262 438.115C670.171 437.807 670.081 437.536 670.009 437.319C669.666 436.272 668.979 435.372 668.06 434.765C667.141 434.157 666.044 433.879 664.946 433.974C666.549 432.906 667.925 431.533 668.995 429.932C670.066 428.331 670.81 426.534 671.184 424.645L674.221 409.404C674.221 409.404 668.58 391.504 669.159 385.357L683.514 386.189L685.322 387.491C686.846 392.59 686.707 398.042 684.925 403.057L674.944 431.877C674.944 431.877 679.627 443.159 685.033 453.808C676.903 458.193 667.928 460.785 658.712 461.409C649.496 462.033 640.253 460.674 631.607 457.424C640.712 458.861 650.007 458.554 658.998 456.52Z" fill="black"/>
<path d="M679.663 442.562C674.384 443.973 658.311 445.871 657.118 434.589C656.504 425.602 656.504 416.583 657.118 407.596C657.849 394.266 662.651 381.481 670.876 370.965L671.527 370.17C671.527 370.17 669.195 368.272 664.295 369.157C657.396 376.172 652.512 384.916 650.157 394.469C642.925 393.421 633.885 392.661 627.846 392.191C630.658 382.51 636.865 374.165 645.329 368.687C643.282 367.896 641.02 367.857 638.947 368.579C630.353 373.804 624.05 382.083 621.301 391.757C615.552 407.686 615.769 467.043 615.877 488.124L625.803 472.322H689.083C688.288 449.577 679.663 442.562 679.663 442.562Z" fill="#37474F"/>
<path d="M710.544 427.14C710.544 427.14 703.8 412.676 694.417 391.36C687.637 375.919 686.136 372.43 675.342 370.767L671.545 370.17C666.429 386.966 669.954 394.56 676.68 406.059L689.987 431.841C695.321 430.792 710.725 428.749 710.544 427.14Z" fill="#FFA8A7"/>
<path d="M690.041 431.841C693.983 439.778 697.273 444.696 702.155 445.979C707.036 447.263 746.541 446.811 746.541 446.811V431.841L708.863 426.109L690.041 431.841Z" fill="#FFA8A7"/>
<path d="M769.177 596.206H706.928V717.505C706.639 722.314 709.64 727.178 715.968 730.848C728.136 737.881 747.861 737.881 760.029 730.848C766.122 727.34 769.159 722.73 769.159 718.192L769.177 596.206Z" fill="#7000FF"/>
<path d="M762.632 585.177C755.744 580.675 760.029 569.719 760.029 569.719H715.968C715.968 569.719 720.126 580.567 713.364 585.177C703.854 592.246 704.704 602.426 715.932 608.916C728.1 615.949 747.825 615.949 759.993 608.916C771.275 602.426 772.124 592.246 762.632 585.177Z" fill="#7000FF"/>
<path opacity="0.05" d="M762.632 585.177C755.744 580.675 760.029 569.719 760.029 569.719H715.968C715.968 569.719 720.126 580.567 713.364 585.177C703.854 592.246 704.704 602.426 715.932 608.916C728.1 615.949 747.825 615.949 759.993 608.916C771.275 602.426 772.124 592.246 762.632 585.177Z" fill="black"/>
<path opacity="0.05" d="M758.836 575.125C759.018 573.275 759.425 571.453 760.047 569.701H715.968C716.58 571.454 716.975 573.276 717.143 575.125C728.986 581.272 746.993 581.272 758.836 575.125Z" fill="black"/>
<path d="M769.177 548.529H765.561C763.975 546.851 762.147 545.419 760.137 544.28C747.97 537.265 728.244 537.265 716.076 544.28C714.067 545.419 712.239 546.851 710.652 548.529H707.036V557.009C707.036 561.619 710.074 566.211 716.167 569.665C728.335 576.698 748.06 576.698 760.228 569.665C766.321 566.157 769.358 561.565 769.358 557.009L769.177 548.529Z" fill="#7000FF"/>
<path d="M715.968 561.239C728.136 568.272 747.861 568.272 760.029 561.239C772.197 554.206 772.197 542.834 760.029 535.801C747.861 528.768 728.136 528.786 715.968 535.801C703.8 542.816 703.818 554.224 715.968 561.239Z" fill="#7000FF"/>
<path opacity="0.4" d="M715.968 561.239C728.136 568.272 747.861 568.272 760.029 561.239C772.197 554.206 772.197 542.834 760.029 535.801C747.861 528.768 728.136 528.786 715.968 535.801C703.8 542.816 703.818 554.224 715.968 561.239Z" fill="white"/>
<path opacity="0.2" d="M738.044 722.893C736.433 722.893 734.887 722.253 733.748 721.113C732.609 719.974 731.969 718.429 731.969 716.818V630.16C731.969 628.549 732.609 627.004 733.748 625.865C734.887 624.725 736.433 624.085 738.044 624.085C739.652 624.09 741.192 624.732 742.328 625.871C743.463 627.01 744.1 628.552 744.1 630.16V716.818C744.1 718.426 743.463 719.968 742.328 721.107C741.192 722.246 739.652 722.888 738.044 722.893Z" fill="black"/>
<path opacity="0.2" d="M758.781 719.222C755.871 720.289 753.52 718.789 753.52 715.878V627.611C753.617 626.03 754.164 624.509 755.096 623.228C756.028 621.946 757.307 620.958 758.781 620.379C761.692 619.33 764.043 620.813 764.043 623.724V712.009C763.945 713.587 763.397 715.105 762.465 716.383C761.533 717.661 760.255 718.646 758.781 719.222Z" fill="black"/>
<path opacity="0.2" d="M717.288 719.222C720.199 720.289 722.549 718.789 722.549 715.878V627.611C722.452 626.03 721.905 624.509 720.973 623.228C720.041 621.946 718.763 620.958 717.288 620.379C714.377 619.33 712.027 620.813 712.027 623.724V712.009C712.125 713.587 712.672 715.105 713.604 716.383C714.536 717.661 715.815 718.646 717.288 719.222Z" fill="black"/>
<path d="M746.541 330.34L733.885 322.999L725.858 360.768C725.858 360.768 733.885 373.876 733.885 382.356V543.485L742.292 553.32L746.614 550.825V389.714C746.614 381.235 754.623 377.384 754.623 377.384L746.541 330.34Z" fill="#E0E0E0"/>
<path d="M742.22 332.835L729.564 325.476L721.537 363.245C721.537 363.245 729.564 376.371 729.564 384.941V546.016L742.22 553.375V392.191C742.22 383.712 750.248 379.861 750.248 379.861L742.22 332.835Z" fill="#EBEBEB"/>
<path d="M729.51 325.476L733.813 322.999L746.541 330.34L742.22 332.835L729.51 325.476Z" fill="#FAFAFA"/>
<path d="M746.541 330.34L742.22 332.835L750.248 379.861L754.551 377.384L746.541 330.34Z" fill="#F5F5F5"/>
<path d="M746.541 419.962C747.192 417.124 751.676 415.533 751.224 420.27C750.772 425.007 753.032 428.315 753.701 430.521C755.057 435.168 754.75 443.936 752.924 445.672C751.982 446.776 750.809 447.658 749.486 448.255C748.164 448.852 746.726 449.149 745.276 449.125C741.756 448.94 738.4 447.577 735.748 445.256C732.819 442.978 729.691 429.888 736.489 431.732C746.596 434.499 746.541 427.23 746.541 427.23V419.962Z" fill="#FFA8A7"/>
<path d="M414.14 462.848C421.246 464.276 425.459 469.501 434.028 482.736C442.598 495.97 455.869 518.896 455.869 518.896L489.1 531.552L487.672 546.504C487.672 546.504 451.421 540.068 446.449 536.379C441.477 532.691 422.295 504.884 422.295 504.884L414.14 462.848Z" fill="#FFA8A7"/>
<path d="M408.192 460.154C415.569 461.456 422.873 463.246 427.411 470.279C431.949 477.312 448.474 504.179 448.474 504.179C448.474 504.179 442.454 518.317 431.461 520.451L415.659 497.688L408.192 460.154Z" fill="#E6E6E6"/>
<path d="M381.144 460.751C378.613 461.365 376.064 461.528 373.822 461.98C362.847 464.186 360.823 469.881 360.551 483.152C360.117 505.336 360.551 556.683 360.551 556.683C370.333 563.789 406.456 568.146 427.032 553.067C427.032 553.067 425.983 494 425.983 483.531C425.983 473.063 420.179 460.498 404.124 459.557L381.144 460.751Z" fill="#F5F5F5"/>
<path d="M357.948 761.981H372.141V737.682H357.948V761.981Z" fill="#FFA8A7"/>
<path d="M416.021 743.576L430.196 744.064L430.919 718.355L416.021 717.866V743.576Z" fill="#FFA8A7"/>
<path d="M429.038 553.122L426.489 495.392L381.832 502.624C381.943 511.75 381.412 520.873 380.24 529.925C379.409 537.048 372.575 546.757 360.461 549.958C359.941 559.285 359.905 568.633 360.352 577.963C360.569 584.689 357.405 659.052 357.405 659.052C357.08 662.958 353.319 669.9 353.03 683.93C352.614 704.306 357.351 749.796 357.351 749.796C359.802 751.001 362.487 751.654 365.218 751.707C367.949 751.76 370.658 751.213 373.153 750.103C373.153 750.103 382.699 684.726 385.249 664.567C387.454 646.975 396.729 597.472 396.729 597.472L407.577 656.973C405.913 664.371 405.304 671.968 405.769 679.537C406.42 688.848 415.063 735.585 415.063 735.585C417.539 736.979 420.29 737.813 423.123 738.029C425.957 738.244 428.803 737.836 431.461 736.832C431.461 736.832 432.293 663.5 432.474 654.93C432.709 645.221 429.038 553.122 429.038 553.122Z" fill="#37474F"/>
<path d="M426.489 495.392C426.019 483.983 424.428 473.443 414.592 463.571C411.903 460.912 408.268 459.429 404.486 459.449H402.37C402.37 459.449 412.242 467.278 416.111 478.65C418.236 485.845 419.29 493.314 419.239 500.816L426.489 495.392Z" fill="#37474F"/>
<path d="M372.159 754.967V752.942C372.918 752.942 373.388 753.683 373.677 755.509C373.894 756.811 374.075 757.805 374.509 759.523C375.133 761.998 375.962 764.417 376.986 766.755C378.993 771.709 380.602 773.535 385.267 779.32C386.848 780.914 388.322 782.612 389.678 784.401C390.546 785.92 390.835 790.168 389.389 791.145C383.965 794.761 375.883 794.761 370.134 793.133C367.987 792.535 366.056 791.332 364.573 789.669C363.089 788.006 362.113 785.951 361.763 783.75C361.564 782.43 361.636 781.092 361.492 779.772C360.969 776.773 359.728 773.944 357.876 771.528C356.816 770.13 355.901 768.627 355.145 767.044C353.952 764.133 354.91 760.843 355.67 758.004C356.339 755.491 357.044 752.725 357.912 752.96V754.515C359.928 756.105 362.432 756.948 364.999 756.901C367.132 756.973 372.177 756.558 372.159 754.967Z" fill="#263238"/>
<path d="M430.304 739.689C431.045 739.689 431.642 740.756 433.269 742.509C435.69 744.97 438.507 747.005 441.604 748.53C446.92 751.188 457.261 755.274 461.944 757.389C464.855 758.691 464.728 762.235 461.709 764.242C458.69 766.248 451.385 767.695 442.635 765.742C437.861 764.675 431.66 760.318 427.719 760.499C423.777 760.68 416.437 760.68 413.544 758.691C410.651 756.702 411.736 752.435 412.622 748.765C413.526 744.751 414.629 738.514 415.967 738.785V740.159C417.666 742.744 426.471 743.775 430.232 741.967L430.304 739.689Z" fill="#263238"/>
<path d="M396.729 597.508C404.066 595.228 410.812 591.365 416.491 586.19C416.491 586.19 412.676 593.313 401.34 599.967L406.764 652.887L396.729 597.508Z" fill="#263238"/>
<path d="M406.294 433.088C417.068 433.088 425.802 424.354 425.802 413.58C425.802 402.806 417.068 394.072 406.294 394.072C395.52 394.072 386.785 402.806 386.785 413.58C386.785 424.354 395.52 433.088 406.294 433.088Z" fill="#263238"/>
<path d="M372.575 427.447C372.575 427.447 375.739 442.291 377.004 444.732C377.848 446.237 379.241 447.357 380.891 447.86L380.656 437.428L372.575 427.447Z" fill="#263238"/>
<path d="M376.534 406.167C375.429 406.041 374.309 406.167 373.26 406.536C372.211 406.906 371.259 407.509 370.477 408.301C367.874 410.958 369.32 419.293 372.575 427.447L378.523 428.134L376.534 406.167Z" fill="#263238"/>
<path d="M380.313 428.134C379.12 428.84 377.42 426.543 375.937 425.007C374.455 423.47 369.664 421.391 367.259 426.417C364.854 431.443 369.374 438.368 373.171 439.561C379.68 441.604 380.656 437.428 380.656 437.428L381.144 461.673C389.262 472.069 411.754 471.183 402.388 460.317V453.085C405.292 453.554 408.239 453.705 411.175 453.537C415.967 452.796 418.986 449.017 420.432 443.828C422.783 435.493 423.669 428.749 421.68 412.351C419.51 394.379 398.61 394.271 387.328 401.304C376.046 408.337 380.313 428.134 380.313 428.134Z" fill="#FFA8A7"/>
<path d="M381.813 506.24C382.139 491.487 378.776 469.61 373.822 462.053C376.112 461.004 378.638 460.58 381.144 460.823C381.144 460.823 390.438 475.287 390.04 506.24H381.813Z" fill="#37474F"/>
<path d="M380.313 430.141C379.716 430.141 377.42 426.363 375.937 425.007C373.876 423.199 376.534 406.167 376.534 406.167C375.822 404.673 375.578 402.999 375.833 401.363C376.088 399.728 376.83 398.208 377.962 397.001C380.783 393.909 384.706 390.112 397.507 391.577C406.547 392.643 416.563 395.5 424.627 391.577C425.363 394.187 425.304 396.958 424.457 399.534C423.61 402.111 422.013 404.376 419.872 406.041C419.872 406.041 416.961 407.849 409.331 408.843C402.277 409.376 395.189 409.242 388.16 408.445C385.954 408.138 385.484 410.253 384.29 416.147C383.296 421.372 382.32 430.105 380.313 430.141Z" fill="#263238"/>
<path d="M376.552 407.487L369.32 403.618C369.551 403.137 369.876 402.707 370.276 402.354C370.676 402.002 371.143 401.733 371.649 401.564C372.155 401.396 372.69 401.33 373.222 401.373C373.753 401.415 374.271 401.564 374.744 401.81C375.716 402.343 376.446 403.23 376.783 404.287C377.12 405.344 377.037 406.49 376.552 407.487Z" fill="#263238"/>
<path d="M402.37 453.157C402.37 453.157 391.649 451.006 387.906 449.017C385.712 447.864 383.912 446.082 382.736 443.9C383.303 446.09 384.305 448.144 385.683 449.939C388.413 453.428 402.37 456.014 402.37 456.014V453.157Z" fill="#F28F8F"/>
<path d="M401.955 426.815C401.937 427.237 401.795 427.644 401.548 427.986C401.3 428.328 400.957 428.59 400.561 428.738C400.166 428.887 399.736 428.916 399.324 428.821C398.912 428.727 398.538 428.513 398.246 428.207C397.955 427.901 397.761 427.516 397.687 427.101C397.613 426.685 397.663 426.256 397.831 425.869C397.999 425.481 398.277 425.152 398.631 424.921C398.985 424.691 399.399 424.57 399.821 424.573C400.108 424.58 400.392 424.643 400.654 424.76C400.917 424.876 401.154 425.043 401.352 425.252C401.55 425.46 401.706 425.705 401.809 425.973C401.912 426.241 401.962 426.527 401.955 426.815Z" fill="#263238"/>
<path d="M399.695 418.715L395.102 421.246C394.781 420.622 394.713 419.898 394.911 419.224C395.11 418.551 395.56 417.98 396.169 417.63C396.47 417.464 396.802 417.361 397.144 417.325C397.487 417.29 397.833 417.324 398.162 417.426C398.49 417.527 398.796 417.693 399.059 417.914C399.322 418.136 399.538 418.408 399.695 418.715Z" fill="#263238"/>
<path d="M401.376 440.284L406.276 442.092C406.17 442.422 405.999 442.726 405.773 442.988C405.546 443.249 405.27 443.463 404.959 443.615C404.648 443.766 404.31 443.854 403.965 443.872C403.619 443.89 403.274 443.838 402.949 443.719C402.294 443.46 401.765 442.958 401.472 442.318C401.179 441.678 401.145 440.949 401.376 440.284Z" fill="#F28F8F"/>
<path d="M421.101 420.505L416.907 417.268C417.102 416.988 417.353 416.75 417.643 416.569C417.933 416.388 418.257 416.268 418.595 416.215C418.933 416.163 419.278 416.18 419.609 416.264C419.941 416.349 420.251 416.5 420.523 416.708C421.084 417.148 421.457 417.786 421.565 418.492C421.672 419.197 421.506 419.917 421.101 420.505Z" fill="#263238"/>
<path d="M419.8 426.2C419.782 426.622 419.64 427.029 419.392 427.371C419.145 427.713 418.802 427.975 418.406 428.124C418.011 428.272 417.581 428.301 417.169 428.206C416.757 428.112 416.382 427.899 416.091 427.593C415.8 427.287 415.605 426.902 415.532 426.486C415.458 426.07 415.508 425.642 415.676 425.254C415.844 424.866 416.122 424.537 416.476 424.306C416.83 424.076 417.244 423.955 417.666 423.958C418.245 423.977 418.793 424.223 419.192 424.642C419.591 425.061 419.809 425.621 419.8 426.2Z" fill="#263238"/>
<path d="M408.319 424.573L409.006 437.482L415.75 435.186L408.319 424.573Z" fill="#F28F8F"/>
<path d="M510.688 448.547C510.688 444.569 514.014 439.019 513.002 436.071L505.661 431.823L490.944 468.796L475.938 477.33L468.525 466.482L490.709 433.378L483.369 429.147C482.447 429.581 481.561 430.051 480.548 430.593C463.788 440.121 450.102 463.589 449.975 483.025C449.975 492.825 453.32 499.695 458.852 502.913L466.084 507.126L466.934 504.92H467.476V676.951C457.171 688.432 449.993 704.56 449.903 718.535C449.903 725.767 451.711 731.481 454.947 735.241L462.288 739.49L469.646 698.268L484.652 689.734L492.065 700.582L477.312 737.989L484.652 742.22C484.652 742.22 510.579 703.529 510.706 684.111C510.899 679.255 509.807 674.434 507.542 670.135L509.35 668.598L502.118 664.386C499.39 662.77 496.242 662.008 493.078 662.198V490.185C503.42 478.704 510.597 462.595 510.688 448.547Z" fill="#455A64"/>
<path d="M467.549 676.969L474.889 681.218V509.187L467.549 504.938V676.969Z" fill="#263238"/>
<path d="M500.454 666.465V494.434C510.76 482.953 517.938 466.826 518.028 452.85C518.028 445.618 516.22 439.904 513.002 436.144L498.285 473.117L483.278 481.651L475.866 470.803L490.709 433.45C489.781 433.884 488.841 434.372 487.889 434.914C471.129 444.443 457.442 467.91 457.316 487.346C457.225 501.593 464.439 509.657 474.889 509.241V681.272C464.584 692.735 457.406 708.863 457.316 722.857C457.316 730.089 459.124 735.802 462.36 739.581L477.059 702.589L492.065 694.073L499.478 704.921L484.634 742.256C485.575 741.822 486.442 741.352 487.455 740.81C504.215 731.282 517.902 707.814 518.028 688.378C518.119 674.113 510.905 666.049 500.454 666.465Z" fill="#37474F"/>
<path d="M488.865 695.881L492.065 694.073L499.478 704.885L484.634 742.22L477.294 737.99L492.138 700.636L488.865 695.881Z" fill="#263238"/>
<path d="M500.454 525.043C500.454 527.81 496.26 530.883 493.222 532.818C490.185 534.752 486.244 537.446 487.798 543.033C488.071 544.121 488.57 545.14 489.264 546.022C489.957 546.905 490.829 547.631 491.822 548.153C492.815 548.675 493.908 548.982 495.028 549.053C496.147 549.124 497.27 548.958 498.321 548.565C500.161 547.764 501.758 546.494 502.954 544.882C504.15 543.271 504.903 541.374 505.137 539.381C505.897 534.228 507.632 521.897 500.581 520.451L500.454 525.043Z" fill="#FFA8A7"/>
<path d="M332.003 539.833C344.225 484.96 351.891 472.937 368.886 466.663L366.572 499.641C366.572 499.641 350.625 535.168 348.221 547.824C346.105 558.871 343.737 572.756 344.117 582.176C344.189 583.847 344.879 585.431 346.051 586.624C349.179 589.878 350.065 592.608 352.126 596.224C353.717 599.063 355.435 600.093 354.965 600.744C354.355 601.452 353.495 601.896 352.564 601.984C351.634 602.072 350.706 601.796 349.975 601.214C348.298 600.018 346.774 598.621 345.436 597.056C345.884 600.722 346.915 604.293 348.492 607.633C352.108 615.28 351.331 619.24 340.844 616.673C334.263 615.082 329.996 609.73 328.749 594.055C328.158 588.283 327.982 582.476 328.224 576.68C329.309 561.764 330.032 548.656 332.003 539.833Z" fill="#FFA8A7"/>
<path d="M370.369 462.848C366.014 462.994 361.776 464.298 358.092 466.627C353.826 469.501 346.72 481.091 342.218 495.428C337.716 509.765 335.348 517.721 335.348 517.721C335.348 517.721 342.724 528.948 358.635 524.519C358.635 524.519 367.584 502.1 367.078 503.528C367.024 503.564 378.939 481.452 370.369 462.848Z" fill="#E6E6E6"/>
</svg>
