<svg width="918" height="757" viewBox="0 0 918 757" fill="none" xmlns="http://www.w3.org/2000/svg">
<path d="M50.4606 430.976H48.0953V462.765H50.4606V430.976Z" fill="#7000FF"/>
<path d="M50.4606 472.226H48.0953V485.377H50.4606V472.226Z" fill="#7000FF"/>
<path d="M56.3737 314.795H443.163V729.826H67.4431C64.5136 729.826 61.7041 728.662 59.6326 726.591C57.5611 724.519 56.3974 721.71 56.3974 718.78V314.795H56.3737Z" fill="#7000FF"/>
<path opacity="0.2" d="M443.163 314.795H56.3737V344.219H278.92L286.3 729.826L291.456 344.219H443.163V314.795Z" fill="black"/>
<path d="M53.0387 251.714H443.163V335.822H53.0387C51.5771 335.822 50.1753 335.241 49.1418 334.208C48.1083 333.174 47.5277 331.773 47.5277 330.311V257.248C47.5246 256.523 47.6648 255.804 47.9404 255.132C48.2159 254.461 48.6214 253.851 49.1334 253.336C49.6455 252.822 50.2541 252.414 50.9243 252.135C51.5944 251.857 52.313 251.714 53.0387 251.714V251.714Z" fill="#7000FF"/>
<path d="M205.314 729.826L201.269 251.714H285.377L289.398 729.826H205.314Z" fill="#263238"/>
<path d="M595.604 729.826H443.258L443.258 314.795H606.579V718.78C606.579 721.697 605.425 724.496 603.369 726.566C601.312 728.635 598.521 729.807 595.604 729.826V729.826Z" fill="#7000FF"/>
<path opacity="0.2" d="M595.604 729.826H443.258L443.258 314.795H606.579V718.78C606.579 721.697 605.425 724.496 603.369 726.566C601.312 728.635 598.521 729.807 595.604 729.826V729.826Z" fill="black"/>
<path opacity="0.2" d="M443.163 314.795H606.555V344.219H515.374L502.981 729.826L504.329 344.219H443.163V314.795Z" fill="black"/>
<path d="M609.914 335.822H443.163V251.714H609.914C610.637 251.714 611.354 251.856 612.023 252.133C612.691 252.41 613.299 252.816 613.811 253.328C614.322 253.84 614.728 254.447 615.005 255.116C615.282 255.784 615.425 256.501 615.425 257.225V330.287C615.428 331.013 615.288 331.732 615.012 332.404C614.736 333.075 614.331 333.685 613.819 334.2C613.307 334.714 612.698 335.122 612.028 335.4C611.358 335.679 610.639 335.822 609.914 335.822V335.822Z" fill="#7000FF"/>
<path opacity="0.2" d="M609.914 335.822H443.163V251.714H609.914C610.637 251.714 611.354 251.856 612.023 252.133C612.691 252.41 613.299 252.816 613.811 253.328C614.322 253.84 614.728 254.447 615.005 255.116C615.282 255.784 615.425 256.501 615.425 257.225V330.287C615.428 331.013 615.288 331.732 615.012 332.404C614.736 333.075 614.331 333.685 613.819 334.2C613.307 334.714 612.698 335.122 612.028 335.4C611.358 335.679 610.639 335.822 609.914 335.822V335.822Z" fill="black"/>
<path d="M502.981 729.826L510.029 251.714H562.514L555.465 729.826H502.981Z" fill="#263238"/>
<path opacity="0.2" d="M502.981 729.826L510.029 251.714H562.514L555.465 729.826H502.981Z" fill="black"/>
<path d="M530.37 93.0054V92.8871H461.565C457.605 93.2168 453.74 94.2753 450.164 96.0092C380.39 125.244 346.472 201.854 331.476 251.619H401.866C401.866 251.619 568.451 88.2749 530.37 93.0054Z" fill="#263238"/>
<path opacity="0.5" d="M401.866 251.714C401.866 187.071 450.779 125.338 520.554 96.1038C590.329 66.8693 401.866 251.714 401.866 251.714Z" fill="black"/>
<path d="M548.346 133.948H497.28C494.021 134.228 490.827 135.026 487.819 136.313C427.647 158.026 380.508 214.91 355.081 251.856H407.353C407.353 251.856 577.983 130.4 548.346 133.948Z" fill="#263238"/>
<path opacity="0.5" d="M407.448 251.714C432.07 187.852 480.014 157.884 540.186 136.171C600.358 114.458 407.448 251.714 407.448 251.714Z" fill="black"/>
<path d="M204.486 72.8297V72.6878H135.515C134.251 72.6636 133.004 72.9776 131.902 73.5972C130.8 74.2168 129.883 75.1195 129.247 76.212C107.723 109.16 200.205 195.563 267.449 251.69H337.839C337.839 251.69 234.714 67.4606 204.486 72.8297Z" fill="#263238"/>
<path opacity="0.5" d="M337.839 251.714C270.689 195.586 178.113 109.184 199.637 76.2357C221.161 43.2878 337.839 251.714 337.839 251.714Z" fill="black"/>
<path d="M276.389 119.023H225.205C224.173 119.048 223.158 119.294 222.228 119.742C221.298 120.191 220.475 120.833 219.813 121.625C197.012 146.105 247.817 210.275 286.04 251.927H338.241C338.241 251.927 299.924 114.908 276.389 119.023Z" fill="#263238"/>
<path opacity="0.5" d="M338.241 251.714C300.018 210.038 249.189 145.892 272.014 121.412C294.838 96.9316 338.241 251.714 338.241 251.714Z" fill="black"/>
<path d="M49.2602 553.287H47.863V572.066H49.2602V553.287Z" fill="#7000FF"/>
<path d="M49.2602 577.655H47.863V585.423H49.2602V577.655Z" fill="#7000FF"/>
<path d="M52.7533 484.656H281.241V729.826H59.2923C57.5617 729.826 55.902 729.138 54.6784 727.915C53.4547 726.691 52.7672 725.031 52.7672 723.301V484.656H52.7533Z" fill="#7000FF"/>
<path opacity="0.2" d="M281.241 484.656H52.7533V502.037H184.218L188.577 729.826L191.623 502.037H281.241V484.656Z" fill="black"/>
<path d="M50.7832 447.392H281.24V497.077H50.7832C49.9198 497.077 49.0917 496.734 48.4812 496.123C47.8706 495.513 47.5276 494.685 47.5276 493.821V450.661C47.5258 450.233 47.6087 449.808 47.7714 449.411C47.9342 449.015 48.1737 448.654 48.4762 448.35C48.7787 448.047 49.1382 447.805 49.5341 447.641C49.93 447.477 50.3545 447.392 50.7832 447.392V447.392Z" fill="#7000FF"/>
<path d="M140.736 729.826L138.347 447.392H188.032L190.407 729.826H140.736Z" fill="#263238"/>
<path d="M371.291 729.826H281.296V484.656H377.774V723.301C377.774 725.024 377.093 726.677 375.878 727.9C374.663 729.122 373.015 729.815 371.291 729.826V729.826Z" fill="#7000FF"/>
<path opacity="0.2" d="M371.291 729.826H281.296V484.656H377.774V723.301C377.774 725.024 377.093 726.677 375.878 727.9C374.663 729.122 373.015 729.815 371.291 729.826V729.826Z" fill="black"/>
<path opacity="0.2" d="M281.24 484.656H377.76V502.037H323.898L316.576 729.826L317.373 502.037H281.24V484.656Z" fill="black"/>
<path d="M379.744 497.077H281.24V447.392H379.744C380.172 447.392 380.595 447.476 380.99 447.64C381.385 447.803 381.744 448.043 382.046 448.345C382.349 448.648 382.589 449.007 382.752 449.402C382.916 449.797 383 450.22 383 450.647V493.807C383.002 494.236 382.919 494.661 382.756 495.058C382.593 495.454 382.354 495.815 382.051 496.119C381.749 496.422 381.389 496.663 380.994 496.828C380.598 496.992 380.173 497.077 379.744 497.077V497.077Z" fill="#7000FF"/>
<path opacity="0.2" d="M379.744 497.077H281.24V447.392H379.744C380.172 447.392 380.595 447.476 380.99 447.64C381.385 447.803 381.744 448.043 382.046 448.345C382.349 448.648 382.589 449.007 382.752 449.402C382.916 449.797 383 450.22 383 450.647V493.807C383.002 494.236 382.919 494.661 382.756 495.058C382.593 495.454 382.354 495.815 382.051 496.119C381.749 496.422 381.389 496.663 380.994 496.828C380.598 496.992 380.173 497.077 379.744 497.077V497.077Z" fill="black"/>
<path d="M316.576 729.826L320.74 447.392H351.744L347.58 729.826H316.576Z" fill="#263238"/>
<path opacity="0.2" d="M316.576 729.826L320.74 447.392H351.744L347.58 729.826H316.576Z" fill="black"/>
<path d="M332.756 353.638V353.569H292.111C289.772 353.763 287.488 354.389 285.376 355.413C244.158 372.683 224.122 417.938 215.264 447.336H256.845C256.845 447.336 355.251 350.844 332.756 353.638Z" fill="#263238"/>
<path opacity="0.5" d="M256.845 447.392C256.845 409.206 285.74 372.738 326.958 355.469C368.176 338.199 256.845 447.392 256.845 447.392Z" fill="black"/>
<path d="M343.375 377.824H313.209C311.283 377.99 309.397 378.461 307.62 379.222C272.075 392.048 244.228 425.651 229.208 447.476H260.087C260.087 447.476 360.882 375.728 343.375 377.824Z" fill="#263238"/>
<path opacity="0.5" d="M260.142 447.392C274.688 409.667 303.009 391.964 338.554 379.138C374.1 366.311 260.142 447.392 260.142 447.392Z" fill="black"/>
<path d="M140.247 341.72V341.636H99.5042C98.7575 341.622 98.0206 341.808 97.3697 342.174C96.7187 342.54 96.1773 343.073 95.8016 343.718C83.0869 363.181 137.718 414.222 177.441 447.378H219.022C219.022 447.378 158.104 338.548 140.247 341.72Z" fill="#263238"/>
<path opacity="0.5" d="M219.022 447.392C179.355 414.236 124.668 363.195 137.383 343.732C150.097 324.269 219.022 447.392 219.022 447.392Z" fill="black"/>
<path d="M182.723 369.008H152.487C151.877 369.023 151.277 369.168 150.728 369.433C150.179 369.698 149.692 370.077 149.301 370.545C135.832 385.006 165.844 422.913 188.423 447.518H219.26C219.26 447.518 196.625 366.577 182.723 369.008Z" fill="#263238"/>
<path opacity="0.5" d="M219.26 447.392C196.681 422.773 166.655 384.88 180.138 370.419C193.621 355.958 219.26 447.392 219.26 447.392Z" fill="black"/>
<path d="M777.042 695.175L795.113 689.333L786.409 645.954L768.338 651.772L777.042 695.175Z" fill="#FF8B7B"/>
<path d="M633.732 710.431H652.701L657.763 666.461H638.77L633.732 710.431Z" fill="#FF8B7B"/>
<path d="M654.522 708.231H631.366C630.995 708.231 630.635 708.361 630.35 708.598C630.065 708.836 629.872 709.167 629.805 709.532L626.802 726.42C626.736 726.838 626.763 727.265 626.879 727.672C626.996 728.078 627.2 728.455 627.477 728.774C627.754 729.094 628.097 729.349 628.483 729.523C628.869 729.696 629.288 729.784 629.711 729.779C637.161 729.66 642.578 729.211 651.968 729.211C657.739 729.211 675.147 729.826 683.118 729.826C691.089 729.826 691.799 721.95 688.511 721.216C673.752 718.023 662.493 713.624 657.763 709.39C656.866 708.611 655.71 708.197 654.522 708.231Z" fill="#263238"/>
<path d="M794.309 687.299L774.559 693.779C774.202 693.896 773.895 694.13 773.689 694.444C773.482 694.757 773.389 695.132 773.423 695.506L775.032 712.725C775.071 713.141 775.203 713.543 775.419 713.901C775.635 714.258 775.93 714.562 776.28 714.79C776.631 715.017 777.028 715.163 777.443 715.215C777.857 715.267 778.278 715.224 778.674 715.09C785.77 712.725 795.917 708.941 804.858 706.055C815.312 702.673 821.533 700.97 833.785 696.996C841.212 694.631 840.88 686.447 837.522 686.778C822.384 688.245 813.869 691.012 799.11 687.417C797.554 686.917 795.887 686.876 794.309 687.299V687.299Z" fill="#263238"/>
<path d="M699.131 134.35C701.496 139.672 704.145 145.419 706.794 150.907C709.443 156.394 712.14 161.952 714.978 167.345C717.816 172.738 720.607 178.154 723.635 183.334C726.662 188.514 729.737 193.623 732.978 198.519C734.633 200.885 736.242 203.25 737.992 205.473L740.57 208.761C741.046 209.411 741.576 210.021 742.155 210.582C742.982 211.454 743.992 212.132 745.111 212.569C746.636 213.064 748.253 213.21 749.842 212.995C754.684 212.129 759.316 210.347 763.489 207.744C765.855 206.372 768.22 204.787 770.585 203.131C772.95 201.476 775.316 199.56 777.492 197.928L788.467 206.987C786.593 209.953 784.523 212.789 782.27 215.478C780.029 218.19 777.603 220.742 775.008 223.118C772.305 225.651 769.376 227.931 766.257 229.93C762.827 232.183 759.102 233.95 755.187 235.181C750.612 236.66 745.764 237.104 740.996 236.482C735.882 235.801 731.011 233.885 726.804 230.9C724.874 229.524 723.07 227.981 721.412 226.287L717.84 222.361C715.475 219.759 713.37 217.063 711.17 214.39C703.182 203.762 695.988 192.56 689.646 180.874C686.501 175.127 683.497 169.356 680.706 163.466C677.915 157.577 675.195 151.806 672.64 145.49L699.131 134.35Z" fill="#FF8B7B"/>
<path d="M664.385 136.053C661.003 153.863 683.142 179.337 683.142 179.337L715.664 165.335C715.664 165.335 712.282 144.923 699.296 130.187C683.378 112.14 668.099 116.658 664.385 136.053Z" fill="#7000FF"/>
<path opacity="0.2" d="M681.959 142.345C673.09 139.175 666.538 140.216 664.172 142.345C665.781 159.28 683.094 179.242 683.094 179.242L706.132 169.332C704.429 161.456 695.843 147.406 681.959 142.345Z" fill="black"/>
<path d="M774.748 201.925L785.131 180.047L799.701 195.279C799.701 195.279 795.562 212.734 781.915 210.511L774.748 201.925Z" fill="#FF8B7B"/>
<path d="M793.457 169.758L804.739 183.736L799.701 195.279L785.131 180.047L793.457 169.758Z" fill="#FF8B7B"/>
<path opacity="0.2" d="M786.409 645.954L790.903 668.329L772.809 674.148L768.338 651.796L786.409 645.954Z" fill="black"/>
<path opacity="0.2" d="M638.77 666.484H657.763L655.161 689.144H636.144L638.77 666.484Z" fill="black"/>
<path d="M579.189 136.313C606.555 206.112 609.937 282.699 613.249 297.931L713.322 280.57C715.688 186.244 692.035 134.113 685.696 121.885C685.241 121.009 684.566 120.267 683.736 119.732C682.906 119.197 681.952 118.887 680.966 118.834C678.175 118.645 673.87 118.432 668.572 118.408C665.781 118.408 662.777 118.408 659.655 118.574C657.928 118.574 656.178 118.763 654.428 118.881C640.106 120.533 625.891 123.005 611.853 126.284C609.204 126.876 606.508 127.538 603.906 128.224C601.304 128.91 599.175 129.572 596.81 130.258C586.923 133.215 579.189 136.313 579.189 136.313Z" fill="#7000FF"/>
<path opacity="0.2" d="M588.958 164.389C592.269 175.316 595.107 186.196 597.496 196.745C600.642 177.658 602.037 158.05 602.037 158.05L588.958 164.389Z" fill="black"/>
<path d="M608.092 77.9387C613.13 91.1605 620.179 115.783 612.184 126.568C620.888 132.671 632.1 139.53 648.444 137.283C664.787 135.036 660.033 124.345 654.711 119.189C638.817 118.195 637.256 106.795 638.155 95.7017L608.092 77.9387Z" fill="#FF8B7B"/>
<path d="M659.087 141.801C659.087 141.801 671.741 130.353 657.881 118.408C656.072 118.292 654.256 118.484 652.512 118.976C652.512 118.976 668.051 132.269 650.359 136.952C636.873 136.112 623.768 132.135 612.09 125.338C610.678 125.65 609.327 126.194 608.092 126.947C612.965 136.715 646.078 144.379 646.078 144.379C646.389 142.835 646.923 141.345 647.663 139.956C650.917 149.09 653.432 158.471 655.185 168.008C657.418 167.674 659.624 167.176 661.784 166.517C659.947 157.103 657.578 147.801 654.688 138.655C656.315 139.459 657.8 140.521 659.087 141.801Z" fill="white"/>
<path opacity="0.2" d="M620.297 85.2L638.036 95.7018C637.824 98.2913 637.824 100.894 638.036 103.483C632.076 103.649 622.946 98.6347 621.267 92.6269C620.507 90.2281 620.179 87.7135 620.297 85.2V85.2Z" fill="black"/>
<path d="M643.524 59.3005C657.432 54.0024 655.989 18.429 634.583 23.6798C620.108 27.2277 621.598 31.6034 624.247 40.8989C626.896 50.1943 634.725 62.6592 643.524 59.3005Z" fill="#263238"/>
<path d="M602.889 57.6449C607.241 75.9756 608.849 86.9266 619.871 94.8029C636.428 106.629 657.715 94.2116 659.04 74.9585C660.128 57.6212 652.819 30.5391 633.401 26.3289C629.124 25.3742 624.674 25.5295 620.474 26.78C616.275 28.0305 612.464 30.3346 609.407 33.4731C606.349 36.6117 604.144 40.4803 603.004 44.7112C601.863 48.9421 601.823 53.3944 602.889 57.6449V57.6449Z" fill="#FF8B7B"/>
<path d="M605.514 70.9376C619.422 65.6394 614.076 30.7283 592.671 36.0501C578.196 39.598 580.703 47.8764 584.771 56.0128C589.147 64.6224 596.786 74.2962 605.514 70.9376Z" fill="#263238"/>
<path d="M637.303 9.25179C633.684 0.00365533 614.833 -6.66635 611.404 11.3096C595.557 10.2452 557.807 40.9225 602.629 40.8043C624.791 46.3863 657.621 34.1815 658.117 21.3382C658.614 8.49491 642.743 3.85902 637.303 9.25179Z" fill="#263238"/>
<path d="M598.182 75.3606C600.57 78.9944 604.291 81.5431 608.542 82.4563C614.076 83.5443 616.205 78.3171 614.124 73.1609C612.255 68.4304 607.028 62.399 601.824 63.6999C596.621 65.0008 595.202 70.8666 598.182 75.3606Z" fill="#FF8B7B"/>
<path d="M796.319 661.967L765.713 671.83C765.713 671.83 735.272 561.538 723.777 503.518C720.253 485.85 710.508 463.309 701.875 437.291C690.971 404.58 677.867 369.361 667.295 341.806C656.131 312.785 647.9 291.947 647.9 291.947L713.346 280.57C713.346 280.57 769.757 433.389 777.61 490.793C785.77 550.492 796.319 661.967 796.319 661.967Z" fill="#263238"/>
<path opacity="0.2" d="M701.851 437.291C690.947 404.58 677.844 369.361 667.271 341.806L672.616 326.29C691.042 344.124 701.662 404.131 701.851 437.291Z" fill="black"/>
<path d="M682.148 285.986C682.148 285.986 687.47 449.473 685.105 505.032C682.503 565.914 663.936 684.791 663.936 684.791H629.167C629.167 684.791 636.925 577.007 636.263 517.615C635.435 449.969 613.367 297.978 613.367 297.978L682.148 285.986Z" fill="#263238"/>
<path d="M668.099 685.501H627.133V673.272L672.924 672.468L668.099 685.501Z" fill="#7000FF"/>
<path d="M800.387 661.446L763.939 673.202L760.131 661.423L800.695 647.657L800.387 661.446Z" fill="#7000FF"/>
<path d="M631.887 57.9287C632.147 59.4424 633.164 60.5305 634.252 60.2939C635.34 60.0574 635.813 58.7565 635.553 57.2428C635.293 55.729 634.276 54.6647 633.188 54.8775C632.1 55.0904 631.532 56.4386 631.887 57.9287Z" fill="#263238"/>
<path d="M648.94 54.9721C649.2 56.4859 650.217 57.5739 651.306 57.3374C652.394 57.1008 652.867 55.8 652.606 54.2862C652.346 52.7724 651.329 51.6844 650.359 51.921C649.39 52.1575 648.68 53.4584 648.94 54.9721Z" fill="#263238"/>
<path d="M643.642 56.6751C646.241 60.9739 649.425 64.8904 653.103 68.3121C652.199 69.2286 651.108 69.938 649.903 70.3913C648.698 70.8445 647.409 71.0309 646.126 70.9376L643.642 56.6751Z" fill="#FF5652"/>
<path d="M640.473 76.0702C638.742 76.1697 637.009 75.9125 635.381 75.3144C633.754 74.7163 632.266 73.7901 631.012 72.5932C630.969 72.5514 630.936 72.5017 630.913 72.4469C630.89 72.3921 630.878 72.3333 630.878 72.2739C630.878 72.2146 630.89 72.1558 630.913 72.101C630.936 72.0461 630.969 71.9964 631.012 71.9546C631.099 71.8749 631.213 71.8306 631.331 71.8306C631.449 71.8306 631.563 71.8749 631.65 71.9546C633.05 73.246 634.735 74.1889 636.568 74.7067C638.401 75.2245 640.33 75.3027 642.199 74.9348C642.318 74.9207 642.437 74.9518 642.534 75.022C642.63 75.0921 642.697 75.1962 642.72 75.3133C642.741 75.4292 642.715 75.5487 642.649 75.646C642.582 75.7433 642.48 75.8107 642.365 75.8337C641.739 75.9504 641.108 76.0294 640.473 76.0702Z" fill="#263238"/>
<path d="M625.666 53.3401C625.526 53.3733 625.38 53.3733 625.241 53.3401C625.032 53.229 624.873 53.0418 624.798 52.8173C624.724 52.5928 624.738 52.3481 624.838 52.1338C625.466 50.8193 626.403 49.6764 627.568 48.8031C628.734 47.9298 630.094 47.3521 631.532 47.1195C631.77 47.0944 632.009 47.165 632.195 47.3158C632.382 47.4667 632.5 47.6853 632.526 47.9237C632.551 48.1621 632.48 48.4006 632.329 48.5869C632.178 48.7732 631.96 48.892 631.721 48.9171C630.612 49.115 629.565 49.5744 628.669 50.2572C627.772 50.94 627.051 51.8265 626.565 52.8434C626.487 53.0103 626.358 53.1483 626.196 53.2374C626.035 53.3266 625.849 53.3626 625.666 53.3401V53.3401Z" fill="#263238"/>
<path d="M655.185 47.8291C655.035 47.8375 654.887 47.8097 654.751 47.7479C654.615 47.6861 654.496 47.5922 654.404 47.4743C653.776 46.5362 652.934 45.7615 651.946 45.2144C650.959 44.6672 649.856 44.3636 648.727 44.3285C648.487 44.335 648.253 44.2471 648.076 44.0835C647.899 43.92 647.794 43.6939 647.781 43.4534C647.775 43.2189 647.86 42.9912 648.019 42.8188C648.178 42.6465 648.399 42.5432 648.633 42.5309C650.062 42.5502 651.465 42.9126 652.725 43.5877C653.984 44.2628 655.063 45.2307 655.87 46.4099C656.011 46.6015 656.07 46.8408 656.035 47.0757C655.999 47.3107 655.872 47.522 655.681 47.6635C655.538 47.771 655.364 47.8291 655.185 47.8291V47.8291Z" fill="#263238"/>
<path d="M660.932 711.566C659.249 711.518 657.575 711.288 655.941 710.88C655.852 710.858 655.771 710.811 655.708 710.744C655.644 710.677 655.603 710.592 655.587 710.502C655.568 710.416 655.577 710.327 655.611 710.247C655.644 710.167 655.702 710.099 655.776 710.052C656.438 709.626 662.422 705.866 664.551 706.93C664.791 707.049 664.995 707.23 665.14 707.455C665.286 707.68 665.368 707.94 665.379 708.207C665.451 708.639 665.413 709.083 665.268 709.496C665.124 709.91 664.877 710.28 664.551 710.573C663.493 711.306 662.216 711.656 660.932 711.566V711.566ZM657.219 710.241C660.459 710.88 662.943 710.762 663.936 709.887C664.163 709.693 664.334 709.441 664.43 709.157C664.526 708.874 664.543 708.57 664.48 708.278C664.488 708.167 664.463 708.057 664.408 707.96C664.353 707.863 664.271 707.785 664.172 707.734C663.061 707.167 659.655 708.799 657.219 710.336V710.241Z" fill="#7000FF"/>
<path d="M656.036 710.88C655.959 710.901 655.877 710.901 655.8 710.88C655.73 710.84 655.673 710.781 655.635 710.71C655.597 710.639 655.58 710.558 655.587 710.478C655.587 710.241 655.823 704.754 657.952 702.956C658.208 702.731 658.509 702.564 658.836 702.466C659.162 702.368 659.506 702.341 659.844 702.389C660.184 702.386 660.515 702.499 660.782 702.71C661.048 702.921 661.235 703.216 661.311 703.548C661.807 705.676 658.188 709.839 656.249 710.904L656.036 710.88ZM659.56 703.193C659.373 703.189 659.186 703.223 659.011 703.292C658.837 703.361 658.678 703.464 658.543 703.595C657.273 705.316 656.578 707.393 656.556 709.532C658.449 708.042 660.743 704.801 660.435 703.666C660.435 703.548 660.435 703.264 659.773 703.193H659.56V703.193Z" fill="#7000FF"/>
<path d="M796.887 689.214C796.801 689.216 796.717 689.193 796.646 689.146C796.574 689.1 796.518 689.033 796.485 688.954C796.433 688.882 796.405 688.795 796.405 688.706C796.405 688.617 796.433 688.53 796.485 688.457C797.171 687.748 803.249 681.74 805.946 682.237C806.189 682.289 806.415 682.401 806.605 682.562C806.795 682.723 806.942 682.928 807.034 683.159C807.203 683.536 807.278 683.947 807.254 684.359C807.229 684.771 807.105 685.171 806.892 685.525C805.473 687.89 800.056 688.883 796.981 689.238L796.887 689.214ZM805.567 683.112C804.053 683.112 800.6 685.856 798.188 688.15C802.374 687.511 805.283 686.376 806.088 685.051C806.216 684.811 806.283 684.543 806.283 684.271C806.283 683.999 806.216 683.731 806.088 683.49C806.064 683.398 806.014 683.314 805.942 683.251C805.87 683.187 805.781 683.147 805.686 683.136L805.567 683.112Z" fill="#7000FF"/>
<path d="M796.887 689.214H796.768C796.69 689.196 796.619 689.155 796.564 689.096C796.509 689.037 796.473 688.963 796.461 688.883C796.461 688.67 795.326 683.656 797.005 681.031C797.242 680.645 797.556 680.313 797.926 680.052C798.296 679.792 798.715 679.61 799.157 679.517V679.517C800.364 679.257 800.908 679.753 801.121 680.203C802.114 682.142 799.063 687.44 797.194 689.12C797.105 689.185 796.997 689.218 796.887 689.214ZM799.796 680.321H799.347C799.019 680.384 798.708 680.516 798.435 680.707C798.162 680.899 797.933 681.146 797.762 681.433C796.918 683.435 796.72 685.651 797.194 687.772C798.968 685.714 800.931 681.693 800.34 680.534C800.279 680.45 800.195 680.386 800.099 680.348C800.003 680.311 799.898 680.301 799.796 680.321V680.321Z" fill="#7000FF"/>
<path d="M602.298 159.847C599.932 165.287 597.567 171.153 595.202 176.901C592.837 182.648 590.66 188.443 588.555 194.262C586.45 200.08 584.369 205.852 582.571 211.67C580.774 217.489 579.071 223.283 577.699 229.007C577.06 231.869 576.374 234.731 575.949 237.522L575.57 239.627V240.148V240.006C575.57 239.887 575.57 239.698 575.57 239.533C575.461 238.823 575.14 238.163 574.648 237.64C573.938 237.191 574.979 238.539 576.824 239.438C579.025 240.566 581.32 241.5 583.683 242.229C595.318 245.306 607.183 247.433 619.162 248.592L619.919 262.783C613.288 264.037 606.578 264.828 599.838 265.148C592.859 265.553 585.858 265.291 578.929 264.368C575.017 263.858 571.171 262.931 567.457 261.601C565.226 260.796 563.079 259.774 561.048 258.549C558.396 256.958 556.063 254.889 554.165 252.447C551.772 249.321 550.283 245.599 549.86 241.685C549.802 240.732 549.802 239.776 549.86 238.823V237.475V236.813L550.12 234.164C550.404 230.592 550.948 227.186 551.468 223.733C553.872 210.499 557.256 197.462 561.592 184.73C563.744 178.462 565.944 172.265 568.427 166.139C570.911 160.013 573.323 154.052 576.28 147.832L602.298 159.847Z" fill="#FF8B7B"/>
<path d="M579.189 136.313C569.35 141.635 562.514 173.613 562.514 173.613L591.607 191.494C591.607 191.494 599.152 176.712 604.686 164.554C615.283 141.304 598.537 125.859 579.189 136.313Z" fill="#7000FF"/>
<path d="M616.56 248.284L635.695 247.456L627.204 265.669C627.204 265.669 609.18 264.581 611.569 255.948L616.56 248.284Z" fill="#FF8B7B"/>
<path d="M648.302 259.992L638.77 271.866L627.227 265.574L635.695 247.433L648.302 259.992Z" fill="#FF8B7B"/>
</svg>
